<svg xmlns="http://www.w3.org/2000/svg" xmlns:xlink="http://www.w3.org/1999/xlink" version="1.1" data-diagram-type="CLASS" style="width:1931px;height:1151px;background:#1B1B1B;" width="1931px" height="1151px" viewBox="0 0 1931 1151" zoomAndPan="magnify" preserveAspectRatio="none" contentStyleType="text/css"><?plantuml 1.2026.7beta8?><defs/><g font-family="sans-serif" lengthAdjust="spacing"><rect x="0" y="0" width="1931" height="1151" fill="#1B1B1B" style="stroke:none;"/><!--class Visibilidade--><g class="entity" data-qualified-name="Visibilidade" id="ent0001" data-source-line="6"><rect x="13.74" y="7" width="112.172" height="80.594" fill="#313139" style="stroke:#E7E7E7;stroke-width:0.5;" rx="2.5" ry="2.5"/><ellipse cx="28.74" cy="23" rx="11" ry="11" fill="#852D19" style="stroke:#E7E7E7;stroke-width:1;"/><path d="M32.849,29 L25.131,29 L25.131,16.609 L32.849,16.609 L32.849,18.766 L27.584,18.766 L27.584,21.438 L32.349,21.438 L32.349,23.594 L27.584,23.594 L27.584,26.844 L32.849,26.844 L32.849,29 Z " fill="#FFF"/><text x="42.74" y="27.847" fill="#FFF" font-size="14" textLength="80.172">Visibilidade</text><line x1="14.74" y1="39" x2="124.912" y2="39" style="stroke:#E7E7E7;stroke-width:0.5;"/><text x="19.74" y="55.995" fill="#FFF" font-size="14" textLength="61.018">PUBLICO</text><text x="19.74" y="72.292" fill="#FFF" font-size="14" textLength="63.253">PRIVADO</text><line x1="14.74" y1="79.594" x2="124.912" y2="79.594" style="stroke:#E7E7E7;stroke-width:0.5;"/></g><!--class Usuario--><g class="entity" data-qualified-name="Usuario" id="ent0002" data-source-line="15"><rect x="983.47" y="419.97" width="180.711" height="162.078" fill="#313139" style="stroke:#E7E7E7;stroke-width:0.5;" rx="2.5" ry="2.5"/><ellipse cx="1042.973" cy="435.97" rx="11" ry="11" fill="#2E5233" style="stroke:#E7E7E7;stroke-width:1;"/><path d="M1045.942,441.611 Q1045.364,441.907 1044.723,442.048 Q1044.083,442.204 1043.38,442.204 Q1040.88,442.204 1039.552,440.564 Q1038.239,438.907 1038.239,435.782 Q1038.239,432.657 1039.552,431.001 Q1040.88,429.345 1043.38,429.345 Q1044.083,429.345 1044.723,429.501 Q1045.38,429.657 1045.942,429.954 L1045.942,432.673 Q1045.317,432.095 1044.723,431.829 Q1044.13,431.548 1043.505,431.548 Q1042.161,431.548 1041.473,432.626 Q1040.786,433.689 1040.786,435.782 Q1040.786,437.876 1041.473,438.954 Q1042.161,440.017 1043.505,440.017 Q1044.13,440.017 1044.723,439.751 Q1045.317,439.47 1045.942,438.892 L1045.942,441.611 Z " fill="#FFF"/><text x="1063.473" y="440.817" fill="#FFF" font-size="14" textLength="53.204">Usuario</text><line x1="984.47" y1="451.97" x2="1163.181" y2="451.97" style="stroke:#E7E7E7;stroke-width:0.5;"/><text x="989.47" y="468.965" fill="#FFF" font-size="14" textLength="64.36">+UUID id</text><text x="989.47" y="485.262" fill="#FFF" font-size="14" textLength="150.855">+String nomeUsuario</text><text x="989.47" y="501.559" fill="#FFF" font-size="14" textLength="96.571">+String email</text><text x="989.47" y="517.856" fill="#FFF" font-size="14" textLength="135.468">+String senhaHash</text><text x="989.47" y="534.153" fill="#FFF" font-size="14" textLength="119.923">+String biografia</text><text x="989.47" y="550.449" fill="#FFF" font-size="14" textLength="103.229">+String avatar</text><text x="989.47" y="566.746" fill="#FFF" font-size="14" textLength="168.711">+DateTime dataCriacao</text><line x1="984.47" y1="574.048" x2="1163.181" y2="574.048" style="stroke:#E7E7E7;stroke-width:0.5;"/></g><!--class Restaurante--><g class="entity" data-qualified-name="Restaurante" id="ent0003" data-source-line="25"><rect x="143.95" y="164.59" width="143.756" height="178.375" fill="#313139" style="stroke:#E7E7E7;stroke-width:0.5;" rx="2.5" ry="2.5"/><ellipse cx="170.591" cy="180.59" rx="11" ry="11" fill="#2E5233" style="stroke:#E7E7E7;stroke-width:1;"/><path d="M173.56,186.231 Q172.982,186.527 172.341,186.668 Q171.7,186.824 170.997,186.824 Q168.497,186.824 167.169,185.184 Q165.857,183.527 165.857,180.402 Q165.857,177.277 167.169,175.621 Q168.497,173.965 170.997,173.965 Q171.7,173.965 172.341,174.121 Q172.997,174.277 173.56,174.574 L173.56,177.293 Q172.935,176.715 172.341,176.449 Q171.747,176.168 171.122,176.168 Q169.779,176.168 169.091,177.246 Q168.404,178.309 168.404,180.402 Q168.404,182.496 169.091,183.574 Q169.779,184.637 171.122,184.637 Q171.747,184.637 172.341,184.371 Q172.935,184.09 173.56,183.512 L173.56,186.231 Z " fill="#FFF"/><text x="187.178" y="185.437" fill="#FFF" font-size="14" textLength="85.887">Restaurante</text><line x1="144.95" y1="196.59" x2="286.706" y2="196.59" style="stroke:#E7E7E7;stroke-width:0.5;"/><text x="149.95" y="213.585" fill="#FFF" font-size="14" textLength="64.36">+UUID id</text><text x="149.95" y="229.882" fill="#FFF" font-size="14" textLength="97.651">+String nome</text><text x="149.95" y="246.179" fill="#FFF" font-size="14" textLength="124.94">+String descricao</text><text x="149.95" y="262.476" fill="#FFF" font-size="14" textLength="123.58">+String endereco</text><text x="149.95" y="278.773" fill="#FFF" font-size="14" textLength="104.515">+String cidade</text><text x="149.95" y="295.069" fill="#FFF" font-size="14" textLength="105.39">+String estado</text><text x="149.95" y="311.366" fill="#FFF" font-size="14" textLength="119.499">+Double latitude</text><text x="149.95" y="327.663" fill="#FFF" font-size="14" textLength="131.756">+Double longitude</text><line x1="144.95" y1="334.965" x2="286.706" y2="334.965" style="stroke:#E7E7E7;stroke-width:0.5;"/></g><!--class Categoria--><g class="entity" data-qualified-name="Categoria" id="ent0004" data-source-line="36"><rect x="161" y="7" width="109.651" height="80.594" fill="#313139" style="stroke:#E7E7E7;stroke-width:0.5;" rx="2.5" ry="2.5"/><ellipse cx="180.283" cy="23" rx="11" ry="11" fill="#2E5233" style="stroke:#E7E7E7;stroke-width:1;"/><path d="M183.252,28.641 Q182.674,28.938 182.033,29.078 Q181.392,29.234 180.689,29.234 Q178.189,29.234 176.861,27.594 Q175.549,25.938 175.549,22.813 Q175.549,19.688 176.861,18.031 Q178.189,16.375 180.689,16.375 Q181.392,16.375 182.033,16.531 Q182.689,16.688 183.252,16.984 L183.252,19.703 Q182.627,19.125 182.033,18.859 Q181.439,18.578 180.814,18.578 Q179.47,18.578 178.783,19.656 Q178.095,20.719 178.095,22.813 Q178.095,24.906 178.783,25.984 Q179.47,27.047 180.814,27.047 Q181.439,27.047 182.033,26.781 Q182.627,26.5 183.252,25.922 L183.252,28.641 Z " fill="#FFF"/><text x="195.235" y="27.847" fill="#FFF" font-size="14" textLength="68.134">Categoria</text><line x1="162" y1="39" x2="269.651" y2="39" style="stroke:#E7E7E7;stroke-width:0.5;"/><text x="167" y="55.995" fill="#FFF" font-size="14" textLength="64.36">+UUID id</text><text x="167" y="72.292" fill="#FFF" font-size="14" textLength="97.651">+String nome</text><line x1="162" y1="79.594" x2="269.651" y2="79.594" style="stroke:#E7E7E7;stroke-width:0.5;"/></g><!--class Prato--><g class="entity" data-qualified-name="Prato" id="ent0005" data-source-line="41"><rect x="267.64" y="436.26" width="196.365" height="129.484" fill="#313139" style="stroke:#E7E7E7;stroke-width:0.5;" rx="2.5" ry="2.5"/><ellipse cx="343.157" cy="452.26" rx="11" ry="11" fill="#2E5233" style="stroke:#E7E7E7;stroke-width:1;"/><path d="M346.125,457.901 Q345.547,458.198 344.907,458.338 Q344.266,458.494 343.563,458.494 Q341.063,458.494 339.735,456.854 Q338.422,455.198 338.422,452.073 Q338.422,448.948 339.735,447.291 Q341.063,445.635 343.563,445.635 Q344.266,445.635 344.907,445.791 Q345.563,445.948 346.125,446.244 L346.125,448.963 Q345.5,448.385 344.907,448.119 Q344.313,447.838 343.688,447.838 Q342.344,447.838 341.657,448.916 Q340.969,449.979 340.969,452.073 Q340.969,454.166 341.657,455.244 Q342.344,456.307 343.688,456.307 Q344.313,456.307 344.907,456.041 Q345.5,455.76 346.125,455.182 L346.125,457.901 Z " fill="#FFF"/><text x="363.657" y="457.107" fill="#FFF" font-size="14" textLength="36.832">Prato</text><line x1="268.64" y1="468.26" x2="463.005" y2="468.26" style="stroke:#E7E7E7;stroke-width:0.5;"/><text x="273.64" y="485.255" fill="#FFF" font-size="14" textLength="64.36">+UUID id</text><text x="273.64" y="501.552" fill="#FFF" font-size="14" textLength="97.651">+String nome</text><text x="273.64" y="517.849" fill="#FFF" font-size="14" textLength="124.94">+String descricao</text><text x="273.64" y="534.146" fill="#FFF" font-size="14" textLength="115.206">+String imagem</text><text x="273.64" y="550.443" fill="#FFF" font-size="14" textLength="184.365">+Double mediaAvaliacoes</text><line x1="268.64" y1="557.744" x2="463.005" y2="557.744" style="stroke:#E7E7E7;stroke-width:0.5;"/></g><!--class Avaliacao--><g class="entity" data-qualified-name="Avaliacao" id="ent0006" data-source-line="49"><rect x="232.47" y="659.04" width="180.711" height="129.484" fill="#313139" style="stroke:#E7E7E7;stroke-width:0.5;" rx="2.5" ry="2.5"/><ellipse cx="284.755" cy="675.04" rx="11" ry="11" fill="#2E5233" style="stroke:#E7E7E7;stroke-width:1;"/><path d="M287.723,680.681 Q287.145,680.978 286.505,681.118 Q285.864,681.274 285.161,681.274 Q282.661,681.274 281.333,679.634 Q280.02,677.978 280.02,674.853 Q280.02,671.728 281.333,670.071 Q282.661,668.415 285.161,668.415 Q285.864,668.415 286.505,668.571 Q287.161,668.728 287.723,669.024 L287.723,671.743 Q287.098,671.165 286.505,670.899 Q285.911,670.618 285.286,670.618 Q283.942,670.618 283.255,671.696 Q282.567,672.759 282.567,674.853 Q282.567,676.946 283.255,678.024 Q283.942,679.087 285.286,679.087 Q285.911,679.087 286.505,678.821 Q287.098,678.54 287.723,677.962 L287.723,680.681 Z " fill="#FFF"/><text x="305.255" y="679.887" fill="#FFF" font-size="14" textLength="67.642">Avaliacao</text><line x1="233.47" y1="691.04" x2="412.181" y2="691.04" style="stroke:#E7E7E7;stroke-width:0.5;"/><text x="238.47" y="708.035" fill="#FFF" font-size="14" textLength="64.36">+UUID id</text><text x="238.47" y="724.332" fill="#FFF" font-size="14" textLength="97.296">+Double nota</text><text x="238.47" y="740.629" fill="#FFF" font-size="14" textLength="124.94">+String descricao</text><text x="238.47" y="756.926" fill="#FFF" font-size="14" textLength="154.588">+DateTime dataVisita</text><text x="238.47" y="773.223" fill="#FFF" font-size="14" textLength="168.711">+DateTime dataCriacao</text><line x1="233.47" y1="780.524" x2="412.181" y2="780.524" style="stroke:#E7E7E7;stroke-width:0.5;"/></g><!--class FotoAvaliacao--><g class="entity" data-qualified-name="FotoAvaliacao" id="ent0007" data-source-line="57"><rect x="249.84" y="881.83" width="145.964" height="80.594" fill="#313139" style="stroke:#E7E7E7;stroke-width:0.5;" rx="2.5" ry="2.5"/><ellipse cx="271.882" cy="897.83" rx="11" ry="11" fill="#2E5233" style="stroke:#E7E7E7;stroke-width:1;"/><path d="M274.851,903.471 Q274.273,903.767 273.632,903.908 Q272.992,904.064 272.288,904.064 Q269.788,904.064 268.46,902.424 Q267.148,900.767 267.148,897.642 Q267.148,894.517 268.46,892.861 Q269.788,891.205 272.288,891.205 Q272.992,891.205 273.632,891.361 Q274.288,891.517 274.851,891.814 L274.851,894.533 Q274.226,893.955 273.632,893.689 Q273.038,893.408 272.413,893.408 Q271.07,893.408 270.382,894.486 Q269.695,895.549 269.695,897.642 Q269.695,899.736 270.382,900.814 Q271.07,901.877 272.413,901.877 Q273.038,901.877 273.632,901.611 Q274.226,901.33 274.851,900.752 L274.851,903.471 Z " fill="#FFF"/><text x="287.447" y="902.677" fill="#FFF" font-size="14" textLength="98.314">FotoAvaliacao</text><line x1="250.84" y1="913.83" x2="394.804" y2="913.83" style="stroke:#E7E7E7;stroke-width:0.5;"/><text x="255.84" y="930.825" fill="#FFF" font-size="14" textLength="64.36">+UUID id</text><text x="255.84" y="947.122" fill="#FFF" font-size="14" textLength="133.964">+String urlImagem</text><line x1="250.84" y1="954.424" x2="394.804" y2="954.424" style="stroke:#E7E7E7;stroke-width:0.5;"/></g><!--class CurtidaAvaliacao--><g class="entity" data-qualified-name="CurtidaAvaliacao" id="ent0008" data-source-line="62"><rect x="554.47" y="881.83" width="180.711" height="80.594" fill="#313139" style="stroke:#E7E7E7;stroke-width:0.5;" rx="2.5" ry="2.5"/><ellipse cx="582.889" cy="897.83" rx="11" ry="11" fill="#2E5233" style="stroke:#E7E7E7;stroke-width:1;"/><path d="M585.858,903.471 Q585.28,903.767 584.639,903.908 Q583.999,904.064 583.295,904.064 Q580.795,904.064 579.467,902.424 Q578.155,900.767 578.155,897.642 Q578.155,894.517 579.467,892.861 Q580.795,891.205 583.295,891.205 Q583.999,891.205 584.639,891.361 Q585.295,891.517 585.858,891.814 L585.858,894.533 Q585.233,893.955 584.639,893.689 Q584.045,893.408 583.42,893.408 Q582.077,893.408 581.389,894.486 Q580.702,895.549 580.702,897.642 Q580.702,899.736 581.389,900.814 Q582.077,901.877 583.42,901.877 Q584.045,901.877 584.639,901.611 Q585.233,901.33 585.858,900.752 L585.858,903.471 Z " fill="#FFF"/><text x="599.871" y="902.677" fill="#FFF" font-size="14" textLength="118.891">CurtidaAvaliacao</text><line x1="555.47" y1="913.83" x2="734.181" y2="913.83" style="stroke:#E7E7E7;stroke-width:0.5;"/><text x="560.47" y="930.825" fill="#FFF" font-size="14" textLength="64.36">+UUID id</text><text x="560.47" y="947.122" fill="#FFF" font-size="14" textLength="168.711">+DateTime dataCriacao</text><line x1="555.47" y1="954.424" x2="734.181" y2="954.424" style="stroke:#E7E7E7;stroke-width:0.5;"/></g><!--class Favorito--><g class="entity" data-qualified-name="Favorito" id="ent0009" data-source-line="67"><rect x="518.47" y="683.49" width="180.711" height="80.594" fill="#313139" style="stroke:#E7E7E7;stroke-width:0.5;" rx="2.5" ry="2.5"/><ellipse cx="575.984" cy="699.49" rx="11" ry="11" fill="#2E5233" style="stroke:#E7E7E7;stroke-width:1;"/><path d="M578.953,705.131 Q578.375,705.428 577.734,705.568 Q577.094,705.724 576.39,705.724 Q573.89,705.724 572.562,704.084 Q571.25,702.428 571.25,699.303 Q571.25,696.178 572.562,694.521 Q573.89,692.865 576.39,692.865 Q577.094,692.865 577.734,693.021 Q578.39,693.178 578.953,693.474 L578.953,696.193 Q578.328,695.615 577.734,695.349 Q577.14,695.068 576.515,695.068 Q575.172,695.068 574.484,696.146 Q573.797,697.209 573.797,699.303 Q573.797,701.396 574.484,702.474 Q575.172,703.537 576.515,703.537 Q577.14,703.537 577.734,703.271 Q578.328,702.99 578.953,702.412 L578.953,705.131 Z " fill="#FFF"/><text x="596.484" y="704.337" fill="#FFF" font-size="14" textLength="57.183">Favorito</text><line x1="519.47" y1="715.49" x2="698.181" y2="715.49" style="stroke:#E7E7E7;stroke-width:0.5;"/><text x="524.47" y="732.485" fill="#FFF" font-size="14" textLength="64.36">+UUID id</text><text x="524.47" y="748.782" fill="#FFF" font-size="14" textLength="168.711">+DateTime dataCriacao</text><line x1="519.47" y1="756.084" x2="698.181" y2="756.084" style="stroke:#E7E7E7;stroke-width:0.5;"/></g><!--class Seguir--><g class="entity" data-qualified-name="Seguir" id="ent0010" data-source-line="72"><rect x="861.47" y="667.19" width="180.711" height="113.188" fill="#313139" style="stroke:#E7E7E7;stroke-width:0.5;" rx="2.5" ry="2.5"/><ellipse cx="925.123" cy="683.19" rx="11" ry="11" fill="#2E5233" style="stroke:#E7E7E7;stroke-width:1;"/><path d="M928.092,688.831 Q927.513,689.127 926.873,689.268 Q926.232,689.424 925.529,689.424 Q923.029,689.424 921.701,687.784 Q920.388,686.127 920.388,683.002 Q920.388,679.877 921.701,678.221 Q923.029,676.565 925.529,676.565 Q926.232,676.565 926.873,676.721 Q927.529,676.877 928.092,677.174 L928.092,679.893 Q927.467,679.315 926.873,679.049 Q926.279,678.768 925.654,678.768 Q924.31,678.768 923.623,679.846 Q922.935,680.909 922.935,683.002 Q922.935,685.096 923.623,686.174 Q924.31,687.237 925.654,687.237 Q926.279,687.237 926.873,686.971 Q927.467,686.69 928.092,686.112 L928.092,688.831 Z " fill="#FFF"/><text x="945.623" y="688.037" fill="#FFF" font-size="14" textLength="44.905">Seguir</text><line x1="862.47" y1="699.19" x2="1041.181" y2="699.19" style="stroke:#E7E7E7;stroke-width:0.5;"/><text x="867.47" y="716.185" fill="#FFF" font-size="14" textLength="64.36">+UUID id</text><text x="867.47" y="732.482" fill="#FFF" font-size="14" textLength="125.364">+UUID seguidorId</text><text x="867.47" y="748.779" fill="#FFF" font-size="14" textLength="119.608">+UUID seguidoId</text><text x="867.47" y="765.076" fill="#FFF" font-size="14" textLength="168.711">+DateTime dataCriacao</text><line x1="862.47" y1="772.377" x2="1041.181" y2="772.377" style="stroke:#E7E7E7;stroke-width:0.5;"/></g><!--class Lista--><g class="entity" data-qualified-name="Lista" id="ent0011" data-source-line="79"><rect x="1427.21" y="659.04" width="187.232" height="129.484" fill="#313139" style="stroke:#E7E7E7;stroke-width:0.5;" rx="2.5" ry="2.5"/><ellipse cx="1500.05" cy="675.04" rx="11" ry="11" fill="#2E5233" style="stroke:#E7E7E7;stroke-width:1;"/><path d="M1503.019,680.681 Q1502.441,680.978 1501.8,681.118 Q1501.16,681.274 1500.457,681.274 Q1497.957,681.274 1496.628,679.634 Q1495.316,677.978 1495.316,674.853 Q1495.316,671.728 1496.628,670.071 Q1497.957,668.415 1500.457,668.415 Q1501.16,668.415 1501.8,668.571 Q1502.457,668.728 1503.019,669.024 L1503.019,671.743 Q1502.394,671.165 1501.8,670.899 Q1501.207,670.618 1500.582,670.618 Q1499.238,670.618 1498.55,671.696 Q1497.863,672.759 1497.863,674.853 Q1497.863,676.946 1498.55,678.024 Q1499.238,679.087 1500.582,679.087 Q1501.207,679.087 1501.8,678.821 Q1502.394,678.54 1503.019,677.962 L1503.019,680.681 Z " fill="#FFF"/><text x="1520.55" y="679.887" fill="#FFF" font-size="14" textLength="33.052">Lista</text><line x1="1428.21" y1="691.04" x2="1613.442" y2="691.04" style="stroke:#E7E7E7;stroke-width:0.5;"/><text x="1433.21" y="708.035" fill="#FFF" font-size="14" textLength="64.36">+UUID id</text><text x="1433.21" y="724.332" fill="#FFF" font-size="14" textLength="94.158">+String titulo</text><text x="1433.21" y="740.629" fill="#FFF" font-size="14" textLength="124.94">+String descricao</text><text x="1433.21" y="756.926" fill="#FFF" font-size="14" textLength="175.232">+Visibilidade visibilidade</text><text x="1433.21" y="773.223" fill="#FFF" font-size="14" textLength="168.711">+DateTime dataCriacao</text><line x1="1428.21" y1="780.524" x2="1613.442" y2="780.524" style="stroke:#E7E7E7;stroke-width:0.5;"/></g><!--class ItemLista--><g class="entity" data-qualified-name="ItemLista" id="ent0012" data-source-line="87"><rect x="1301.82" y="881.83" width="132.019" height="80.594" fill="#313139" style="stroke:#E7E7E7;stroke-width:0.5;" rx="2.5" ry="2.5"/><ellipse cx="1332.614" cy="897.83" rx="11" ry="11" fill="#2E5233" style="stroke:#E7E7E7;stroke-width:1;"/><path d="M1335.583,903.471 Q1335.005,903.767 1334.364,903.908 Q1333.723,904.064 1333.02,904.064 Q1330.52,904.064 1329.192,902.424 Q1327.88,900.767 1327.88,897.642 Q1327.88,894.517 1329.192,892.861 Q1330.52,891.205 1333.02,891.205 Q1333.723,891.205 1334.364,891.361 Q1335.02,891.517 1335.583,891.814 L1335.583,894.533 Q1334.958,893.955 1334.364,893.689 Q1333.77,893.408 1333.145,893.408 Q1331.801,893.408 1331.114,894.486 Q1330.426,895.549 1330.426,897.642 Q1330.426,899.736 1331.114,900.814 Q1331.801,901.877 1333.145,901.877 Q1333.77,901.877 1334.364,901.611 Q1334.958,901.33 1335.583,900.752 L1335.583,903.471 Z " fill="#FFF"/><text x="1350.124" y="902.677" fill="#FFF" font-size="14" textLength="64.921">ItemLista</text><line x1="1302.82" y1="913.83" x2="1432.839" y2="913.83" style="stroke:#E7E7E7;stroke-width:0.5;"/><text x="1307.82" y="930.825" fill="#FFF" font-size="14" textLength="64.36">+UUID id</text><text x="1307.82" y="947.122" fill="#FFF" font-size="14" textLength="120.019">+Integer posicao</text><line x1="1302.82" y1="954.424" x2="1432.839" y2="954.424" style="stroke:#E7E7E7;stroke-width:0.5;"/></g><!--class Tag--><g class="entity" data-qualified-name="Tag" id="ent0013" data-source-line="92"><rect x="7" y="460.71" width="109.651" height="80.594" fill="#313139" style="stroke:#E7E7E7;stroke-width:0.5;" rx="2.5" ry="2.5"/><ellipse cx="45.235" cy="476.71" rx="11" ry="11" fill="#2E5233" style="stroke:#E7E7E7;stroke-width:1;"/><path d="M48.204,482.351 Q47.626,482.647 46.985,482.788 Q46.345,482.944 45.641,482.944 Q43.141,482.944 41.813,481.304 Q40.501,479.647 40.501,476.522 Q40.501,473.397 41.813,471.741 Q43.141,470.085 45.641,470.085 Q46.345,470.085 46.985,470.241 Q47.641,470.397 48.204,470.694 L48.204,473.413 Q47.579,472.835 46.985,472.569 Q46.391,472.288 45.766,472.288 Q44.423,472.288 43.735,473.366 Q43.048,474.429 43.048,476.522 Q43.048,478.616 43.735,479.694 Q44.423,480.757 45.766,480.757 Q46.391,480.757 46.985,480.491 Q47.579,480.21 48.204,479.632 L48.204,482.351 Z " fill="#FFF"/><text x="64.399" y="481.557" fill="#FFF" font-size="14" textLength="26.018">Tag</text><line x1="8" y1="492.71" x2="115.651" y2="492.71" style="stroke:#E7E7E7;stroke-width:0.5;"/><text x="13" y="509.705" fill="#FFF" font-size="14" textLength="64.36">+UUID id</text><text x="13" y="526.002" fill="#FFF" font-size="14" textLength="97.651">+String nome</text><line x1="8" y1="533.304" x2="115.651" y2="533.304" style="stroke:#E7E7E7;stroke-width:0.5;"/></g><!--class PratoTag--><g class="entity" data-qualified-name="PratoTag" id="ent0014" data-source-line="97"><rect x="44.89" y="683.49" width="113.876" height="80.594" fill="#313139" style="stroke:#E7E7E7;stroke-width:0.5;" rx="2.5" ry="2.5"/><ellipse cx="68.452" cy="699.49" rx="11" ry="11" fill="#2E5233" style="stroke:#E7E7E7;stroke-width:1;"/><path d="M71.421,705.131 Q70.842,705.428 70.202,705.568 Q69.561,705.724 68.858,705.724 Q66.358,705.724 65.03,704.084 Q63.717,702.428 63.717,699.303 Q63.717,696.178 65.03,694.521 Q66.358,692.865 68.858,692.865 Q69.561,692.865 70.202,693.021 Q70.858,693.178 71.421,693.474 L71.421,696.193 Q70.796,695.615 70.202,695.349 Q69.608,695.068 68.983,695.068 Q67.639,695.068 66.952,696.146 Q66.264,697.209 66.264,699.303 Q66.264,701.396 66.952,702.474 Q67.639,703.537 68.983,703.537 Q69.608,703.537 70.202,703.271 Q70.796,702.99 71.421,702.412 L71.421,705.131 Z " fill="#FFF"/><text x="84.355" y="704.337" fill="#FFF" font-size="14" textLength="62.85">PratoTag</text><line x1="45.89" y1="715.49" x2="157.766" y2="715.49" style="stroke:#E7E7E7;stroke-width:0.5;"/><text x="50.89" y="732.485" fill="#FFF" font-size="14" textLength="101.876">+UUID pratoId</text><text x="50.89" y="748.782" fill="#FFF" font-size="14" textLength="87.555">+UUID tagId</text><line x1="45.89" y1="756.084" x2="157.766" y2="756.084" style="stroke:#E7E7E7;stroke-width:0.5;"/></g><!--class Conquista--><g class="entity" data-qualified-name="Conquista" id="ent0015" data-source-line="102"><rect x="1750.36" y="444.41" width="136.94" height="113.188" fill="#313139" style="stroke:#E7E7E7;stroke-width:0.5;" rx="2.5" ry="2.5"/><ellipse cx="1780.982" cy="460.41" rx="11" ry="11" fill="#2E5233" style="stroke:#E7E7E7;stroke-width:1;"/><path d="M1783.95,466.051 Q1783.372,466.347 1782.732,466.488 Q1782.091,466.644 1781.388,466.644 Q1778.888,466.644 1777.56,465.004 Q1776.247,463.347 1776.247,460.222 Q1776.247,457.097 1777.56,455.441 Q1778.888,453.785 1781.388,453.785 Q1782.091,453.785 1782.732,453.941 Q1783.388,454.097 1783.95,454.394 L1783.95,457.113 Q1783.325,456.535 1782.732,456.269 Q1782.138,455.988 1781.513,455.988 Q1780.169,455.988 1779.482,457.066 Q1778.794,458.129 1778.794,460.222 Q1778.794,462.316 1779.482,463.394 Q1780.169,464.457 1781.513,464.457 Q1782.138,464.457 1782.732,464.191 Q1783.325,463.91 1783.95,463.332 L1783.95,466.051 Z " fill="#FFF"/><text x="1798.453" y="465.257" fill="#FFF" font-size="14" textLength="70.226">Conquista</text><line x1="1751.36" y1="476.41" x2="1886.3" y2="476.41" style="stroke:#E7E7E7;stroke-width:0.5;"/><text x="1756.36" y="493.405" fill="#FFF" font-size="14" textLength="64.36">+UUID id</text><text x="1756.36" y="509.702" fill="#FFF" font-size="14" textLength="94.158">+String titulo</text><text x="1756.36" y="525.999" fill="#FFF" font-size="14" textLength="124.94">+String descricao</text><text x="1756.36" y="542.296" fill="#FFF" font-size="14" textLength="95.601">+String icone</text><line x1="1751.36" y1="549.598" x2="1886.3" y2="549.598" style="stroke:#E7E7E7;stroke-width:0.5;"/></g><!--class UsuarioConquista--><g class="entity" data-qualified-name="UsuarioConquista" id="ent0016" data-source-line="109"><rect x="1721.03" y="691.64" width="195.593" height="64.297" fill="#313139" style="stroke:#E7E7E7;stroke-width:0.5;" rx="2.5" ry="2.5"/><ellipse cx="1754.103" cy="707.64" rx="11" ry="11" fill="#2E5233" style="stroke:#E7E7E7;stroke-width:1;"/><path d="M1757.072,713.281 Q1756.494,713.577 1755.853,713.718 Q1755.213,713.874 1754.51,713.874 Q1752.01,713.874 1750.682,712.234 Q1749.369,710.577 1749.369,707.452 Q1749.369,704.327 1750.682,702.671 Q1752.01,701.015 1754.51,701.015 Q1755.213,701.015 1755.853,701.171 Q1756.51,701.327 1757.072,701.624 L1757.072,704.343 Q1756.447,703.765 1755.853,703.499 Q1755.26,703.218 1754.635,703.218 Q1753.291,703.218 1752.603,704.296 Q1751.916,705.359 1751.916,707.452 Q1751.916,709.546 1752.603,710.624 Q1753.291,711.687 1754.635,711.687 Q1755.26,711.687 1755.853,711.421 Q1756.447,711.14 1757.072,710.562 L1757.072,713.281 Z " fill="#FFF"/><text x="1772.12" y="712.487" fill="#FFF" font-size="14" textLength="123.43">UsuarioConquista</text><line x1="1722.03" y1="723.64" x2="1915.623" y2="723.64" style="stroke:#E7E7E7;stroke-width:0.5;"/><text x="1727.03" y="740.635" fill="#FFF" font-size="14" textLength="183.593">+DateTime dataObtencao</text><line x1="1722.03" y1="747.937" x2="1915.623" y2="747.937" style="stroke:#E7E7E7;stroke-width:0.5;"/></g><!--class Notificacao--><g class="entity" data-qualified-name="Notificacao" id="ent0017" data-source-line="113"><rect x="1211.47" y="667.19" width="180.711" height="113.188" fill="#313139" style="stroke:#E7E7E7;stroke-width:0.5;" rx="2.5" ry="2.5"/><ellipse cx="1258.399" cy="683.19" rx="11" ry="11" fill="#2E5233" style="stroke:#E7E7E7;stroke-width:1;"/><path d="M1261.367,688.831 Q1260.789,689.127 1260.149,689.268 Q1259.508,689.424 1258.805,689.424 Q1256.305,689.424 1254.977,687.784 Q1253.664,686.127 1253.664,683.002 Q1253.664,679.877 1254.977,678.221 Q1256.305,676.565 1258.805,676.565 Q1259.508,676.565 1260.149,676.721 Q1260.805,676.877 1261.367,677.174 L1261.367,679.893 Q1260.742,679.315 1260.149,679.049 Q1259.555,678.768 1258.93,678.768 Q1257.586,678.768 1256.899,679.846 Q1256.211,680.909 1256.211,683.002 Q1256.211,685.096 1256.899,686.174 Q1257.586,687.237 1258.93,687.237 Q1259.555,687.237 1260.149,686.971 Q1260.742,686.69 1261.367,686.112 L1261.367,688.831 Z " fill="#FFF"/><text x="1278.899" y="688.037" fill="#FFF" font-size="14" textLength="78.354">Notificacao</text><line x1="1212.47" y1="699.19" x2="1391.181" y2="699.19" style="stroke:#E7E7E7;stroke-width:0.5;"/><text x="1217.47" y="716.185" fill="#FFF" font-size="14" textLength="64.36">+UUID id</text><text x="1217.47" y="732.482" fill="#FFF" font-size="14" textLength="84.793">+String tipo</text><text x="1217.47" y="748.779" fill="#FFF" font-size="14" textLength="98.116">+Boolean lida</text><text x="1217.47" y="765.076" fill="#FFF" font-size="14" textLength="168.711">+DateTime dataCriacao</text><line x1="1212.47" y1="772.377" x2="1391.181" y2="772.377" style="stroke:#E7E7E7;stroke-width:0.5;"/></g><!--class Comentario--><g class="entity" data-qualified-name="Comentario" id="ent0018" data-source-line="120"><rect x="1007.36" y="865.53" width="208.937" height="113.188" fill="#313139" style="stroke:#E7E7E7;stroke-width:0.5;" rx="2.5" ry="2.5"/><ellipse cx="1066.706" cy="881.53" rx="11" ry="11" fill="#2E5233" style="stroke:#E7E7E7;stroke-width:1;"/><path d="M1069.675,887.171 Q1069.097,887.468 1068.456,887.608 Q1067.816,887.764 1067.112,887.764 Q1064.612,887.764 1063.284,886.124 Q1061.972,884.468 1061.972,881.343 Q1061.972,878.218 1063.284,876.561 Q1064.612,874.905 1067.112,874.905 Q1067.816,874.905 1068.456,875.061 Q1069.112,875.218 1069.675,875.514 L1069.675,878.233 Q1069.05,877.655 1068.456,877.389 Q1067.862,877.108 1067.237,877.108 Q1065.894,877.108 1065.206,878.186 Q1064.519,879.249 1064.519,881.343 Q1064.519,883.436 1065.206,884.514 Q1065.894,885.577 1067.237,885.577 Q1067.862,885.577 1068.456,885.311 Q1069.05,885.03 1069.675,884.452 L1069.675,887.171 Z " fill="#FFF"/><text x="1087.206" y="886.377" fill="#FFF" font-size="14" textLength="81.744">Comentario</text><line x1="1008.36" y1="897.53" x2="1215.297" y2="897.53" style="stroke:#E7E7E7;stroke-width:0.5;"/><text x="1013.36" y="914.525" fill="#FFF" font-size="14" textLength="64.36">+UUID id</text><text x="1013.36" y="930.822" fill="#FFF" font-size="14" textLength="123.525">+String conteudo</text><text x="1013.36" y="947.119" fill="#FFF" font-size="14" textLength="168.711">+DateTime dataCriacao</text><text x="1013.36" y="963.416" fill="#FFF" font-size="14" textLength="196.937">+DateTime dataAtualizacao</text><line x1="1008.36" y1="970.718" x2="1215.297" y2="970.718" style="stroke:#E7E7E7;stroke-width:0.5;"/></g><!--class CurtidaComentario--><g class="entity" data-qualified-name="CurtidaComentario" id="ent0019" data-source-line="127"><rect x="1299.47" y="1055.72" width="180.711" height="80.594" fill="#313139" style="stroke:#E7E7E7;stroke-width:0.5;" rx="2.5" ry="2.5"/><ellipse cx="1321.543" cy="1071.72" rx="11" ry="11" fill="#2E5233" style="stroke:#E7E7E7;stroke-width:1;"/><path d="M1324.512,1077.361 Q1323.934,1077.658 1323.293,1077.798 Q1322.652,1077.954 1321.949,1077.954 Q1319.449,1077.954 1318.121,1076.314 Q1316.809,1074.658 1316.809,1071.533 Q1316.809,1068.408 1318.121,1066.751 Q1319.449,1065.095 1321.949,1065.095 Q1322.652,1065.095 1323.293,1065.251 Q1323.949,1065.408 1324.512,1065.704 L1324.512,1068.423 Q1323.887,1067.845 1323.293,1067.579 Q1322.699,1067.298 1322.074,1067.298 Q1320.73,1067.298 1320.043,1068.376 Q1319.355,1069.439 1319.355,1071.533 Q1319.355,1073.626 1320.043,1074.704 Q1320.73,1075.767 1322.074,1075.767 Q1322.699,1075.767 1323.293,1075.501 Q1323.887,1075.22 1324.512,1074.642 L1324.512,1077.361 Z " fill="#FFF"/><text x="1337.115" y="1076.567" fill="#FFF" font-size="14" textLength="132.993">CurtidaComentario</text><line x1="1300.47" y1="1087.72" x2="1479.181" y2="1087.72" style="stroke:#E7E7E7;stroke-width:0.5;"/><text x="1305.47" y="1104.715" fill="#FFF" font-size="14" textLength="64.36">+UUID id</text><text x="1305.47" y="1121.012" fill="#FFF" font-size="14" textLength="168.711">+DateTime dataCriacao</text><line x1="1300.47" y1="1128.314" x2="1479.181" y2="1128.314" style="stroke:#E7E7E7;stroke-width:0.5;"/></g><!--link Usuario to Avaliacao--><g class="link" data-entity-1="ent0002" data-entity-2="ent0006" id="lnk20" data-source-line="136" data-link-type="association"><path d="M983.1,523.63 C869.35,551.47 668.88,603 500.83,659.04 C472.33,668.55 441.47,679.4 413.57,689.42" style="stroke:#E7E7E7;stroke-width:1;" fill="none" id="Usuario-Avaliacao" codeLine="136"/><polygon points="641.029,622.004,650.535,622.298,648.892,616.654,641.029,622.004" fill="#FFF" style="stroke:#FFF;stroke-width:1;stroke-linejoin:miter;stroke-miterlimit:10;"/><text x="654.83" y="625.107" fill="#FFF" font-size="13" textLength="43.323">realiza</text><text x="967.267" y="538.197" fill="#FFF" font-size="13">1</text><text x="421.08" y="683.418" fill="#FFF" font-size="13" textLength="23.036">0..*</text></g><!--link Prato to Avaliacao--><g class="link" data-entity-1="ent0005" data-entity-2="ent0006" id="lnk21" data-source-line="137" data-link-type="association"><path d="M306.89,566.11 C297.01,580.3 288.22,595.93 282.83,612.04 C277.76,627.16 279.5,643.35 284.36,658.55" style="stroke:#E7E7E7;stroke-width:1;" fill="none" id="Prato-Avaliacao" codeLine="137"/><polygon points="286.646,625.464,291.643,617.372,285.933,615.98,286.646,625.464" fill="#FFF" style="stroke:#FFF;stroke-width:1;stroke-linejoin:miter;stroke-miterlimit:10;"/><text x="296.83" y="625.107" fill="#FFF" font-size="13" textLength="44.738">recebe</text><text x="292.414" y="585.671" fill="#FFF" font-size="13">1</text><text x="256.209" y="648.123" fill="#FFF" font-size="13" textLength="23.036">0..*</text></g><!--link Restaurante to Prato--><g class="link" data-entity-1="ent0003" data-entity-2="ent0005" id="lnk22" data-source-line="139" data-link-type="association"><path d="M269.98,343.31 C288.69,373.9 309.29,407.57 326.57,435.84" style="stroke:#E7E7E7;stroke-width:1;" fill="none" id="Restaurante-Prato" codeLine="139"/><polygon points="303.439,385.802,301.227,376.552,296.212,379.619,303.439,385.802" fill="#FFF" style="stroke:#FFF;stroke-width:1;stroke-linejoin:miter;stroke-miterlimit:10;"/><text x="309.83" y="386.037" fill="#FFF" font-size="13" textLength="41.603">possui</text><text x="265.987" y="363.114" fill="#FFF" font-size="13">1</text><text x="298.338" y="425.42" fill="#FFF" font-size="13" textLength="23.036">0..*</text></g><!--link Restaurante to Avaliacao--><g class="link" data-entity-1="ent0003" data-entity-2="ent0006" id="lnk23" data-source-line="140" data-link-type="association"><path d="M194.84,343.39 C183.02,410.9 175.63,505.03 203.83,582.04 C214.11,610.14 232.76,636.49 252.29,658.61" style="stroke:#E7E7E7;stroke-width:1;" fill="none" id="Restaurante-Avaliacao" codeLine="140"/><text x="204.83" y="505.577" fill="#FFF" font-size="13" textLength="44.738">recebe</text><text x="184.937" y="362.897" fill="#FFF" font-size="13">1</text><text x="220.832" y="648.189" fill="#FFF" font-size="13" textLength="23.036">0..*</text></g><!--link Categoria to Restaurante--><g class="link" data-entity-1="ent0004" data-entity-2="ent0003" id="lnk24" data-source-line="141" data-link-type="association"><path d="M215.83,87.72 C215.83,109.54 215.83,137.59 215.83,164.35" style="stroke:#E7E7E7;stroke-width:1;" fill="none" id="Categoria-Restaurante" codeLine="141"/><polygon points="220.83,131.156,223.769,122.111,217.891,122.111,220.83,131.156" fill="#FFF" style="stroke:#FFF;stroke-width:1;stroke-linejoin:miter;stroke-miterlimit:10;"/><text x="229.83" y="130.657" fill="#FFF" font-size="13" textLength="59.186">classifica</text><text x="207.191" y="107.735" fill="#FFF" font-size="13">1</text><text x="191.879" y="153.396" fill="#FFF" font-size="13" textLength="23.036">0..*</text></g><!--link Avaliacao to FotoAvaliacao--><g class="link" data-entity-1="ent0006" data-entity-2="ent0007" id="lnk25" data-source-line="143" data-link-type="association"><path d="M322.83,788.8 C322.83,819.35 322.83,854.94 322.83,881.51" style="stroke:#E7E7E7;stroke-width:1;" fill="none" id="Avaliacao-FotoAvaliacao" codeLine="143"/><polygon points="327.83,832.096,330.769,823.051,324.891,823.051,327.83,832.096" fill="#FFF" style="stroke:#FFF;stroke-width:1;stroke-linejoin:miter;stroke-miterlimit:10;"/><text x="336.83" y="831.597" fill="#FFF" font-size="13" textLength="41.603">possui</text><text x="314.408" y="808.806" fill="#FFF" font-size="13">1</text><text x="297.93" y="870.619" fill="#FFF" font-size="13" textLength="23.036">0..*</text></g><!--link Avaliacao to CurtidaAvaliacao--><g class="link" data-entity-1="ent0006" data-entity-2="ent0008" id="lnk26" data-source-line="144" data-link-type="association"><path d="M413.38,780 C466.3,812.27 531.87,852.25 579.69,881.41" style="stroke:#E7E7E7;stroke-width:1;" fill="none" id="Avaliacao-CurtidaAvaliacao" codeLine="144"/><polygon points="513.099,829.699,506.906,822.481,503.846,827.5,513.099,829.699" fill="#FFF" style="stroke:#FFF;stroke-width:1;stroke-linejoin:miter;stroke-miterlimit:10;"/><text x="517.83" y="831.597" fill="#FFF" font-size="13" textLength="44.738">recebe</text><text x="421.222" y="797.349" fill="#FFF" font-size="13">1</text><text x="544.479" y="870.803" fill="#FFF" font-size="13" textLength="23.036">0..*</text></g><!--link Usuario to CurtidaAvaliacao--><g class="link" data-entity-1="ent0002" data-entity-2="ent0008" id="lnk27" data-source-line="145" data-link-type="association"><path d="M983.25,535.18 C921.65,561.34 841.53,602.8 785.83,659.04 C739.94,705.38 747.72,731.1 716.83,788.53 C700.01,819.79 680.82,855.1 666.49,881.42" style="stroke:#E7E7E7;stroke-width:1;" fill="none" id="Usuario-CurtidaAvaliacao" codeLine="145"/><polygon points="787.455,727.546,795.729,722.856,791.392,718.888,787.455,727.546" fill="#FFF" style="stroke:#FFF;stroke-width:1;stroke-linejoin:miter;stroke-miterlimit:10;"/><text x="799.83" y="728.357" fill="#FFF" font-size="13" textLength="43.323">realiza</text><text x="967.134" y="550.834" fill="#FFF" font-size="13">1</text><text x="645.113" y="870.815" fill="#FFF" font-size="13" textLength="23.036">0..*</text></g><!--link Avaliacao to Comentario--><g class="link" data-entity-1="ent0006" data-entity-2="ent0018" id="lnk28" data-source-line="147" data-link-type="association"><path d="M413.56,777.63 C422.29,781.67 431.12,785.38 439.83,788.53 C466.42,798.14 824.63,866.7 1006.87,901.28" style="stroke:#E7E7E7;stroke-width:1;" fill="none" id="Avaliacao-Comentario" codeLine="147"/><polygon points="664.725,828.117,656.47,823.394,655.27,829.148,664.725,828.117" fill="#FFF" style="stroke:#FFF;stroke-width:1;stroke-linejoin:miter;stroke-miterlimit:10;"/><text x="668.83" y="831.597" fill="#FFF" font-size="13" textLength="44.738">recebe</text><text x="421.12" y="778.396" fill="#FFF" font-size="13">1</text><text x="976.411" y="896.535" fill="#FFF" font-size="13" textLength="23.036">0..*</text></g><!--link Usuario to Comentario--><g class="link" data-entity-1="ent0002" data-entity-2="ent0018" id="lnk29" data-source-line="148" data-link-type="association"><path d="M1081.11,582.32 C1088.63,665.27 1100.17,792.56 1106.75,865.19" style="stroke:#E7E7E7;stroke-width:1;" fill="none" id="Usuario-Comentario" codeLine="148"/><polygon points="1105.281,728.836,1107.392,719.563,1101.538,720.093,1105.281,728.836" fill="#FFF" style="stroke:#FFF;stroke-width:1;stroke-linejoin:miter;stroke-miterlimit:10;"/><text x="1113.83" y="728.357" fill="#FFF" font-size="13" textLength="50.953">escreve</text><text x="1073.404" y="602.025" fill="#FFF" font-size="13">1</text><text x="1081.732" y="854.412" fill="#FFF" font-size="13" textLength="23.036">0..*</text></g><!--link Comentario to CurtidaComentario--><g class="link" data-entity-1="ent0018" data-entity-2="ent0019" id="lnk30" data-source-line="150" data-link-type="association"><path d="M1202.47,979.17 C1242.71,1004.05 1289.14,1032.76 1325.71,1055.37" style="stroke:#E7E7E7;stroke-width:1;" fill="none" id="Comentario-CurtidaComentario" codeLine="150"/><polygon points="1285.083,1019.916,1278.935,1012.659,1275.844,1017.659,1285.083,1019.916" fill="#FFF" style="stroke:#FFF;stroke-width:1;stroke-linejoin:miter;stroke-miterlimit:10;"/><text x="1289.83" y="1021.787" fill="#FFF" font-size="13" textLength="44.738">recebe</text><text x="1204.504" y="998.708" fill="#FFF" font-size="13">1</text><text x="1290.662" y="1044.774" fill="#FFF" font-size="13" textLength="23.036">0..*</text></g><!--link Usuario to CurtidaComentario--><g class="link" data-entity-1="ent0002" data-entity-2="ent0019" id="lnk31" data-source-line="151" data-link-type="association"><path d="M1164.65,514.25 C1307.8,535.61 1575.47,584.64 1631.83,659.04 C1733.75,793.61 1539.99,976.13 1441.86,1055.47" style="stroke:#E7E7E7;stroke-width:1;" fill="none" id="Usuario-CurtidaComentario" codeLine="151"/><polygon points="1649.109,831.547,1647.602,822.156,1642.37,824.836,1649.109,831.547" fill="#FFF" style="stroke:#FFF;stroke-width:1;stroke-linejoin:miter;stroke-miterlimit:10;"/><text x="1655.83" y="831.597" fill="#FFF" font-size="13" textLength="43.323">realiza</text><text x="1172.217" y="527.975" fill="#FFF" font-size="13">1</text><text x="1425.576" y="1044.59" fill="#FFF" font-size="13" textLength="23.036">0..*</text></g><!--link Usuario to Favorito--><g class="link" data-entity-1="ent0002" data-entity-2="ent0009" id="lnk32" data-source-line="153" data-link-type="association"><path d="M983,522.5 C914.3,540.26 819.11,569.79 742.83,612.04 C708.24,631.2 673.96,659.75 648.73,683.06" style="stroke:#E7E7E7;stroke-width:1;" fill="none" id="Usuario-Favorito" codeLine="153"/><text x="967.158" y="520.731" fill="#FFF" font-size="13">1</text><text x="630.26" y="672.451" fill="#FFF" font-size="13" textLength="23.036">0..*</text></g><!--link Prato to Favorito--><g class="link" data-entity-1="ent0005" data-entity-2="ent0009" id="lnk33" data-source-line="154" data-link-type="association"><path d="M440.22,566.1 C457.29,581.05 475.28,597 491.83,612.04 C517.38,635.28 545.51,661.87 567.78,683.17" style="stroke:#E7E7E7;stroke-width:1;" fill="none" id="Prato-Favorito" codeLine="154"/><text x="439.494" y="585.66" fill="#FFF" font-size="13">1</text><text x="536.08" y="672.279" fill="#FFF" font-size="13" textLength="23.036">0..*</text></g><!--link Usuario to Lista--><g class="link" data-entity-1="ent0002" data-entity-2="ent0011" id="lnk34" data-source-line="156" data-link-type="association"><path d="M1164.67,541.97 C1232.85,572.56 1328.12,616.59 1409.83,659.04 C1415.45,661.96 1421.19,665.02 1426.96,668.16" style="stroke:#E7E7E7;stroke-width:1;" fill="none" id="Usuario-Lista" codeLine="156"/><text x="1172.239" y="541.709" fill="#FFF" font-size="13">1</text><text x="1400.03" y="658.164" fill="#FFF" font-size="13" textLength="23.036">0..*</text></g><!--link Lista to ItemLista--><g class="link" data-entity-1="ent0011" data-entity-2="ent0012" id="lnk35" data-source-line="157" data-link-type="association"><path d="M1470.94,788.8 C1447.13,819.35 1419.4,854.94 1398.69,881.51" style="stroke:#E7E7E7;stroke-width:1;" fill="none" id="Lista-ItemLista" codeLine="157"/><text x="1457.061" y="808.806" fill="#FFF" font-size="13">1</text><text x="1378.9" y="870.619" fill="#FFF" font-size="13" textLength="23.036">0..*</text></g><!--link Prato to ItemLista--><g class="link" data-entity-1="ent0005" data-entity-2="ent0012" id="lnk36" data-source-line="158" data-link-type="association"><path d="M416.07,565.99 C426.14,580.61 436.01,596.45 443.83,612.04 C480.75,685.74 436.81,736.6 500.83,788.53 C516.73,801.43 1213.98,860.48 1233.83,865.53 C1256.53,871.3 1280.42,880.22 1301.64,889.23" style="stroke:#E7E7E7;stroke-width:1;" fill="none" id="Prato-ItemLista" codeLine="158"/><text x="413.143" y="585.993" fill="#FFF" font-size="13">1</text><text x="1270.63" y="882.138" fill="#FFF" font-size="13" textLength="23.036">0..*</text></g><!--link Usuario to Notificacao--><g class="link" data-entity-1="ent0002" data-entity-2="ent0017" id="lnk37" data-source-line="160" data-link-type="association"><path d="M1156.78,582.34 C1185.69,610.32 1217.47,641.1 1243.9,666.7" style="stroke:#E7E7E7;stroke-width:1;" fill="none" id="Usuario-Notificacao" codeLine="160"/><text x="1155.577" y="602.047" fill="#FFF" font-size="13">1</text><text x="1212.875" y="656.307" fill="#FFF" font-size="13" textLength="23.036">0..*</text></g><!--link Prato to PratoTag--><g class="link" data-entity-1="ent0005" data-entity-2="ent0014" id="lnk38" data-source-line="162" data-link-type="association"><path d="M289.11,566.16 C243.9,603.97 188.12,650.62 149.25,683.13" style="stroke:#E7E7E7;stroke-width:1;" fill="none" id="Prato-PratoTag" codeLine="162"/><text x="272.8" y="585.727" fill="#FFF" font-size="13">1</text><text x="131.978" y="672.532" fill="#FFF" font-size="13" textLength="23.036">0..*</text></g><!--link Tag to PratoTag--><g class="link" data-entity-1="ent0013" data-entity-2="ent0014" id="lnk39" data-source-line="163" data-link-type="association"><path d="M69.02,541.73 C76.27,581.71 87.37,643.01 94.62,683.01" style="stroke:#E7E7E7;stroke-width:1;" fill="none" id="Tag-PratoTag" codeLine="163"/><text x="61.551" y="561.493" fill="#FFF" font-size="13">1</text><text x="68.641" y="672.393" fill="#FFF" font-size="13" textLength="23.036">0..*</text></g><!--link Usuario to UsuarioConquista--><g class="link" data-entity-1="ent0002" data-entity-2="ent0016" id="lnk40" data-source-line="165" data-link-type="association"><path d="M1164.48,502.9 C1289.6,507.43 1519.49,527.76 1693.83,612.04 C1732.98,630.97 1769.17,665.74 1792.42,691.29" style="stroke:#E7E7E7;stroke-width:1;" fill="none" id="Usuario-UsuarioConquista" codeLine="165"/><text x="1172.034" y="499.525" fill="#FFF" font-size="13">1</text><text x="1761.961" y="680.495" fill="#FFF" font-size="13" textLength="23.036">0..*</text></g><!--link Conquista to UsuarioConquista--><g class="link" data-entity-1="ent0015" data-entity-2="ent0016" id="lnk41" data-source-line="166" data-link-type="association"><path d="M1818.83,558 C1818.83,600.29 1818.83,656.77 1818.83,691.42" style="stroke:#E7E7E7;stroke-width:1;" fill="none" id="Conquista-UsuarioConquista" codeLine="166"/><text x="1810.383" y="577.532" fill="#FFF" font-size="13">1</text><text x="1793.57" y="680.651" fill="#FFF" font-size="13" textLength="23.036">0..*</text></g><!--reverse link Usuario to Seguir--><g class="link" data-entity-1="ent0002" data-entity-2="ent0010" id="lnk42" data-source-line="168" data-link-type="dependency"><path d="M979.118,557.663 C959.718,573.513 945.68,589.6 934.83,612.04 C926.69,628.85 927.05,648.63 930.67,666.78" style="stroke:#E7E7E7;stroke-width:1;" fill="none" id="Usuario-backto-Seguir" codeLine="168"/><polygon points="982.99,554.5,973.49,557.097,979.118,557.663,978.551,563.292,982.99,554.5" fill="#E7E7E7" style="stroke:#E7E7E7;stroke-width:1;stroke-linejoin:miter;stroke-miterlimit:10;"/><text x="935.83" y="625.107" fill="#FFF" font-size="13" textLength="56.424">seguidor</text><text x="967.148" y="571.623" fill="#FFF" font-size="13">1</text><text x="903.692" y="655.994" fill="#FFF" font-size="13" textLength="23.036">0..*</text></g><!--reverse link Usuario to Seguir--><g class="link" data-entity-1="ent0002" data-entity-2="ent0010" id="lnk43" data-source-line="169" data-link-type="dependency"><path d="M1027.021,586.716 C1011.551,614.696 996.96,641.1 982.82,666.7" style="stroke:#E7E7E7;stroke-width:1;" fill="none" id="Usuario-backto-Seguir-1" codeLine="169"/><polygon points="1029.44,582.34,1021.585,588.281,1027.021,586.716,1028.586,592.152,1029.44,582.34" fill="#E7E7E7" style="stroke:#E7E7E7;stroke-width:1;stroke-linejoin:miter;stroke-miterlimit:10;"/><text x="1013.83" y="625.107" fill="#FFF" font-size="13" textLength="51.08">seguido</text><text x="1017.294" y="602.047" fill="#FFF" font-size="13">1</text><text x="962.076" y="656.307" fill="#FFF" font-size="13" textLength="23.036">0..*</text></g><?plantuml-src hLR9Rjim4BtpAmXV0hH8a5wDje1YkwW0nmwyv3wM9WfHYNIv-92Y_rvg5ss9Sjhw50tVp9kDZr4_63-2X8n6AIWLQ2tPmMWC8y6tx0tfFI4tNmP-v8OkLll7hGU1t6JqcIbsO2cB8KRwYr3xUze_BCFPklnx4pu7ypNvxQUQBOFjTk4Z8qKDTAyCI2Ogfe_xVJYdB2u_jhO-db0kCgnWZXqpOAbZKSXVuJkeLyTwO2AHyCB0iS89DCZID0UDEvOXZQrj9Xb48F8AonGtg3GO2LpZM9gE8KOLIPQ7ShBcCKgCN6DKjDl5MTAuGis5EQH8Kz1CcnfN6mLFIckJyCoMamXRncYwZSkJ12t-GtKiWmGp9y4COmR12LBRLe6gvQniqCzRUNEXmSVhZ2xVtHhkd-ateOMVlw8pCWtBcjhs6gdjl4RIzzF3oSv7_uth5XF3PAzZyQ7oyrZ8iCSONiMmP7RrV3t9jp0Llgau8dBgV5p37shCXdC8xJLCKDAZKCnnsq7opdq_zpZcHgTl6XBxtKvUy9_ctxjJtnKhsvsKAecxu72QjJvev4xPAw7PYuqziiUQ7Ils1o5I14xpWLmpZfbj7DTZ8crhqMXYuObuUH9eO-_GsnbVURr6Q8TozZrAcyKoc8NhLV2uMEtMtiUfVfOcdoRqzfPExk_kFamwYZMb4elKwLTIQgSF6U41BP1qNn8NNyQOvbkj3BFOOUXbQD8AlWlj1fcM_pGKkvBdqePnVLnbx6Gqv70XXvsA-zlOwr5tSvYdNOXnXYusltnuAWRGiVUcz2wENfUcZ7wdMlXxbwOv770kH96KqkYUD9BP6xSz7GZSqH3I6w6MIv9Bvi3HGEnpMIEjm8q0dO2VMs3r0awRf-vQu1y0?></g></svg>