<svg xmlns="http://www.w3.org/2000/svg" xmlns:xlink="http://www.w3.org/1999/xlink" version="1.1" data-diagram-type="CLASS" style="width:1650px;height:961px;background:#1B1B1B;" width="1650px" height="961px" viewBox="0 0 1650 961" zoomAndPan="magnify" preserveAspectRatio="none" contentStyleType="text/css"><?plantuml 1.2026.7beta8?><defs/><g font-family="sans-serif" lengthAdjust="spacing"><rect x="0" y="0" width="1650" height="961" fill="#1B1B1B" style="stroke:none;"/><!--class Visibilidade--><g class="entity" data-qualified-name="Visibilidade" id="ent0001" data-source-line="6"><rect x="66.85" y="7" width="112.172" height="80.594" fill="#313139" style="stroke:#E7E7E7;stroke-width:0.5;" rx="2.5" ry="2.5"/><ellipse cx="81.85" cy="23" rx="11" ry="11" fill="#852D19" style="stroke:#E7E7E7;stroke-width:1;"/><path d="M85.959,29 L78.241,29 L78.241,16.609 L85.959,16.609 L85.959,18.766 L80.694,18.766 L80.694,21.438 L85.459,21.438 L85.459,23.594 L80.694,23.594 L80.694,26.844 L85.959,26.844 L85.959,29 Z " fill="#FFF"/><text x="95.85" y="27.847" fill="#FFF" font-size="14" textLength="80.172">Visibilidade</text><line x1="67.85" y1="39" x2="178.022" y2="39" style="stroke:#E7E7E7;stroke-width:0.5;"/><text x="72.85" y="55.995" fill="#FFF" font-size="14" textLength="61.018">PUBLICO</text><text x="72.85" y="72.292" fill="#FFF" font-size="14" textLength="63.253">PRIVADO</text><line x1="67.85" y1="79.594" x2="178.022" y2="79.594" style="stroke:#E7E7E7;stroke-width:0.5;"/></g><!--class Usuario--><g class="entity" data-qualified-name="Usuario" id="ent0002" data-source-line="15"><rect x="917.58" y="419.97" width="180.711" height="162.078" fill="#313139" style="stroke:#E7E7E7;stroke-width:0.5;" rx="2.5" ry="2.5"/><ellipse cx="977.083" cy="435.97" rx="11" ry="11" fill="#2E5233" style="stroke:#E7E7E7;stroke-width:1;"/><path d="M980.052,441.611 Q979.474,441.908 978.833,442.048 Q978.193,442.204 977.49,442.204 Q974.99,442.204 973.662,440.564 Q972.349,438.908 972.349,435.783 Q972.349,432.658 973.662,431.001 Q974.99,429.345 977.49,429.345 Q978.193,429.345 978.833,429.501 Q979.49,429.658 980.052,429.954 L980.052,432.673 Q979.427,432.095 978.833,431.829 Q978.24,431.548 977.615,431.548 Q976.271,431.548 975.583,432.626 Q974.896,433.689 974.896,435.783 Q974.896,437.876 975.583,438.954 Q976.271,440.017 977.615,440.017 Q978.24,440.017 978.833,439.751 Q979.427,439.47 980.052,438.892 L980.052,441.611 Z " fill="#FFF"/><text x="997.583" y="440.817" fill="#FFF" font-size="14" textLength="53.204">Usuario</text><line x1="918.58" y1="451.97" x2="1097.291" y2="451.97" style="stroke:#E7E7E7;stroke-width:0.5;"/><text x="923.58" y="468.965" fill="#FFF" font-size="14" textLength="64.36">+UUID id</text><text x="923.58" y="485.262" fill="#FFF" font-size="14" textLength="150.855">+String nomeUsuario</text><text x="923.58" y="501.559" fill="#FFF" font-size="14" textLength="96.571">+String email</text><text x="923.58" y="517.856" fill="#FFF" font-size="14" textLength="135.468">+String senhaHash</text><text x="923.58" y="534.153" fill="#FFF" font-size="14" textLength="119.923">+String biografia</text><text x="923.58" y="550.449" fill="#FFF" font-size="14" textLength="103.229">+String avatar</text><text x="923.58" y="566.746" fill="#FFF" font-size="14" textLength="168.711">+DateTime dataCriacao</text><line x1="918.58" y1="574.048" x2="1097.291" y2="574.048" style="stroke:#E7E7E7;stroke-width:0.5;"/></g><!--class Restaurante--><g class="entity" data-qualified-name="Restaurante" id="ent0003" data-source-line="25"><rect x="197.06" y="164.6" width="143.756" height="178.375" fill="#313139" style="stroke:#E7E7E7;stroke-width:0.5;" rx="2.5" ry="2.5"/><ellipse cx="223.701" cy="180.6" rx="11" ry="11" fill="#2E5233" style="stroke:#E7E7E7;stroke-width:1;"/><path d="M226.67,186.241 Q226.092,186.538 225.451,186.678 Q224.81,186.834 224.107,186.834 Q221.607,186.834 220.279,185.194 Q218.967,183.538 218.967,180.413 Q218.967,177.288 220.279,175.631 Q221.607,173.975 224.107,173.975 Q224.81,173.975 225.451,174.131 Q226.107,174.288 226.67,174.584 L226.67,177.303 Q226.045,176.725 225.451,176.459 Q224.857,176.178 224.232,176.178 Q222.889,176.178 222.201,177.256 Q221.514,178.319 221.514,180.413 Q221.514,182.506 222.201,183.584 Q222.889,184.647 224.232,184.647 Q224.857,184.647 225.451,184.381 Q226.045,184.1 226.67,183.522 L226.67,186.241 Z " fill="#FFF"/><text x="240.288" y="185.447" fill="#FFF" font-size="14" textLength="85.887">Restaurante</text><line x1="198.06" y1="196.6" x2="339.816" y2="196.6" style="stroke:#E7E7E7;stroke-width:0.5;"/><text x="203.06" y="213.595" fill="#FFF" font-size="14" textLength="64.36">+UUID id</text><text x="203.06" y="229.892" fill="#FFF" font-size="14" textLength="97.651">+String nome</text><text x="203.06" y="246.189" fill="#FFF" font-size="14" textLength="124.94">+String descricao</text><text x="203.06" y="262.486" fill="#FFF" font-size="14" textLength="123.58">+String endereco</text><text x="203.06" y="278.783" fill="#FFF" font-size="14" textLength="104.515">+String cidade</text><text x="203.06" y="295.079" fill="#FFF" font-size="14" textLength="105.39">+String estado</text><text x="203.06" y="311.376" fill="#FFF" font-size="14" textLength="119.499">+Double latitude</text><text x="203.06" y="327.673" fill="#FFF" font-size="14" textLength="131.756">+Double longitude</text><line x1="198.06" y1="334.975" x2="339.816" y2="334.975" style="stroke:#E7E7E7;stroke-width:0.5;"/></g><!--class Categoria--><g class="entity" data-qualified-name="Categoria" id="ent0004" data-source-line="36"><rect x="214.11" y="7" width="109.651" height="80.594" fill="#313139" style="stroke:#E7E7E7;stroke-width:0.5;" rx="2.5" ry="2.5"/><ellipse cx="233.393" cy="23" rx="11" ry="11" fill="#2E5233" style="stroke:#E7E7E7;stroke-width:1;"/><path d="M236.362,28.641 Q235.784,28.938 235.143,29.078 Q234.502,29.234 233.799,29.234 Q231.299,29.234 229.971,27.594 Q228.659,25.938 228.659,22.813 Q228.659,19.688 229.971,18.031 Q231.299,16.375 233.799,16.375 Q234.502,16.375 235.143,16.531 Q235.799,16.688 236.362,16.984 L236.362,19.703 Q235.737,19.125 235.143,18.859 Q234.549,18.578 233.924,18.578 Q232.58,18.578 231.893,19.656 Q231.205,20.719 231.205,22.813 Q231.205,24.906 231.893,25.984 Q232.58,27.047 233.924,27.047 Q234.549,27.047 235.143,26.781 Q235.737,26.5 236.362,25.922 L236.362,28.641 Z " fill="#FFF"/><text x="248.345" y="27.847" fill="#FFF" font-size="14" textLength="68.134">Categoria</text><line x1="215.11" y1="39" x2="322.761" y2="39" style="stroke:#E7E7E7;stroke-width:0.5;"/><text x="220.11" y="55.995" fill="#FFF" font-size="14" textLength="64.36">+UUID id</text><text x="220.11" y="72.292" fill="#FFF" font-size="14" textLength="97.651">+String nome</text><line x1="215.11" y1="79.594" x2="322.761" y2="79.594" style="stroke:#E7E7E7;stroke-width:0.5;"/></g><!--class Prato--><g class="entity" data-qualified-name="Prato" id="ent0005" data-source-line="41"><rect x="170.76" y="436.27" width="196.365" height="129.484" fill="#313139" style="stroke:#E7E7E7;stroke-width:0.5;" rx="2.5" ry="2.5"/><ellipse cx="246.277" cy="452.27" rx="11" ry="11" fill="#2E5233" style="stroke:#E7E7E7;stroke-width:1;"/><path d="M249.245,457.911 Q248.667,458.208 248.027,458.348 Q247.386,458.504 246.683,458.504 Q244.183,458.504 242.855,456.864 Q241.542,455.208 241.542,452.083 Q241.542,448.958 242.855,447.301 Q244.183,445.645 246.683,445.645 Q247.386,445.645 248.027,445.801 Q248.683,445.958 249.245,446.254 L249.245,448.973 Q248.62,448.395 248.027,448.129 Q247.433,447.848 246.808,447.848 Q245.464,447.848 244.777,448.926 Q244.089,449.989 244.089,452.083 Q244.089,454.176 244.777,455.254 Q245.464,456.317 246.808,456.317 Q247.433,456.317 248.027,456.051 Q248.62,455.77 249.245,455.192 L249.245,457.911 Z " fill="#FFF"/><text x="266.777" y="457.117" fill="#FFF" font-size="14" textLength="36.832">Prato</text><line x1="171.76" y1="468.27" x2="366.125" y2="468.27" style="stroke:#E7E7E7;stroke-width:0.5;"/><text x="176.76" y="485.265" fill="#FFF" font-size="14" textLength="64.36">+UUID id</text><text x="176.76" y="501.562" fill="#FFF" font-size="14" textLength="97.651">+String nome</text><text x="176.76" y="517.859" fill="#FFF" font-size="14" textLength="124.94">+String descricao</text><text x="176.76" y="534.156" fill="#FFF" font-size="14" textLength="115.206">+String imagem</text><text x="176.76" y="550.453" fill="#FFF" font-size="14" textLength="184.365">+Double mediaAvaliacoes</text><line x1="171.76" y1="557.754" x2="366.125" y2="557.754" style="stroke:#E7E7E7;stroke-width:0.5;"/></g><!--class Avaliacao--><g class="entity" data-qualified-name="Avaliacao" id="ent0006" data-source-line="49"><rect x="442.58" y="659.05" width="180.711" height="129.484" fill="#313139" style="stroke:#E7E7E7;stroke-width:0.5;" rx="2.5" ry="2.5"/><ellipse cx="494.865" cy="675.05" rx="11" ry="11" fill="#2E5233" style="stroke:#E7E7E7;stroke-width:1;"/><path d="M497.833,680.691 Q497.255,680.988 496.615,681.128 Q495.974,681.284 495.271,681.284 Q492.771,681.284 491.443,679.644 Q490.13,677.988 490.13,674.863 Q490.13,671.738 491.443,670.081 Q492.771,668.425 495.271,668.425 Q495.974,668.425 496.615,668.581 Q497.271,668.738 497.833,669.034 L497.833,671.753 Q497.208,671.175 496.615,670.909 Q496.021,670.628 495.396,670.628 Q494.052,670.628 493.365,671.706 Q492.677,672.769 492.677,674.863 Q492.677,676.956 493.365,678.034 Q494.052,679.097 495.396,679.097 Q496.021,679.097 496.615,678.831 Q497.208,678.55 497.833,677.972 L497.833,680.691 Z " fill="#FFF"/><text x="515.365" y="679.897" fill="#FFF" font-size="14" textLength="67.642">Avaliacao</text><line x1="443.58" y1="691.05" x2="622.291" y2="691.05" style="stroke:#E7E7E7;stroke-width:0.5;"/><text x="448.58" y="708.045" fill="#FFF" font-size="14" textLength="64.36">+UUID id</text><text x="448.58" y="724.342" fill="#FFF" font-size="14" textLength="97.296">+Double nota</text><text x="448.58" y="740.639" fill="#FFF" font-size="14" textLength="137.628">+String comentario</text><text x="448.58" y="756.936" fill="#FFF" font-size="14" textLength="154.588">+DateTime dataVisita</text><text x="448.58" y="773.233" fill="#FFF" font-size="14" textLength="168.711">+DateTime dataCriacao</text><line x1="443.58" y1="780.534" x2="622.291" y2="780.534" style="stroke:#E7E7E7;stroke-width:0.5;"/></g><!--class FotoAvaliacao--><g class="entity" data-qualified-name="FotoAvaliacao" id="ent0007" data-source-line="57"><rect x="459.96" y="865.54" width="145.964" height="80.594" fill="#313139" style="stroke:#E7E7E7;stroke-width:0.5;" rx="2.5" ry="2.5"/><ellipse cx="482.002" cy="881.54" rx="11" ry="11" fill="#2E5233" style="stroke:#E7E7E7;stroke-width:1;"/><path d="M484.971,887.181 Q484.393,887.478 483.752,887.618 Q483.112,887.774 482.408,887.774 Q479.908,887.774 478.58,886.134 Q477.268,884.478 477.268,881.353 Q477.268,878.228 478.58,876.571 Q479.908,874.915 482.408,874.915 Q483.112,874.915 483.752,875.071 Q484.408,875.228 484.971,875.524 L484.971,878.243 Q484.346,877.665 483.752,877.399 Q483.158,877.118 482.533,877.118 Q481.19,877.118 480.502,878.196 Q479.815,879.259 479.815,881.353 Q479.815,883.446 480.502,884.524 Q481.19,885.587 482.533,885.587 Q483.158,885.587 483.752,885.321 Q484.346,885.04 484.971,884.462 L484.971,887.181 Z " fill="#FFF"/><text x="497.567" y="886.387" fill="#FFF" font-size="14" textLength="98.314">FotoAvaliacao</text><line x1="460.96" y1="897.54" x2="604.924" y2="897.54" style="stroke:#E7E7E7;stroke-width:0.5;"/><text x="465.96" y="914.535" fill="#FFF" font-size="14" textLength="64.36">+UUID id</text><text x="465.96" y="930.832" fill="#FFF" font-size="14" textLength="133.964">+String urlImagem</text><line x1="460.96" y1="938.134" x2="604.924" y2="938.134" style="stroke:#E7E7E7;stroke-width:0.5;"/></g><!--class CurtidaAvaliacao--><g class="entity" data-qualified-name="CurtidaAvaliacao" id="ent0008" data-source-line="62"><rect x="948.58" y="865.54" width="180.711" height="80.594" fill="#313139" style="stroke:#E7E7E7;stroke-width:0.5;" rx="2.5" ry="2.5"/><ellipse cx="976.999" cy="881.54" rx="11" ry="11" fill="#2E5233" style="stroke:#E7E7E7;stroke-width:1;"/><path d="M979.968,887.181 Q979.39,887.478 978.749,887.618 Q978.109,887.774 977.405,887.774 Q974.905,887.774 973.577,886.134 Q972.265,884.478 972.265,881.353 Q972.265,878.228 973.577,876.571 Q974.905,874.915 977.405,874.915 Q978.109,874.915 978.749,875.071 Q979.405,875.228 979.968,875.524 L979.968,878.243 Q979.343,877.665 978.749,877.399 Q978.155,877.118 977.53,877.118 Q976.187,877.118 975.499,878.196 Q974.812,879.259 974.812,881.353 Q974.812,883.446 975.499,884.524 Q976.187,885.587 977.53,885.587 Q978.155,885.587 978.749,885.321 Q979.343,885.04 979.968,884.462 L979.968,887.181 Z " fill="#FFF"/><text x="993.981" y="886.387" fill="#FFF" font-size="14" textLength="118.891">CurtidaAvaliacao</text><line x1="949.58" y1="897.54" x2="1128.291" y2="897.54" style="stroke:#E7E7E7;stroke-width:0.5;"/><text x="954.58" y="914.535" fill="#FFF" font-size="14" textLength="64.36">+UUID id</text><text x="954.58" y="930.832" fill="#FFF" font-size="14" textLength="168.711">+DateTime dataCriacao</text><line x1="949.58" y1="938.134" x2="1128.291" y2="938.134" style="stroke:#E7E7E7;stroke-width:0.5;"/></g><!--class Favorito--><g class="entity" data-qualified-name="Favorito" id="ent0009" data-source-line="67"><rect x="226.58" y="683.5" width="180.711" height="80.594" fill="#313139" style="stroke:#E7E7E7;stroke-width:0.5;" rx="2.5" ry="2.5"/><ellipse cx="284.094" cy="699.5" rx="11" ry="11" fill="#2E5233" style="stroke:#E7E7E7;stroke-width:1;"/><path d="M287.063,705.141 Q286.485,705.438 285.844,705.578 Q285.204,705.734 284.5,705.734 Q282,705.734 280.672,704.094 Q279.36,702.438 279.36,699.313 Q279.36,696.188 280.672,694.531 Q282,692.875 284.5,692.875 Q285.204,692.875 285.844,693.031 Q286.5,693.188 287.063,693.484 L287.063,696.203 Q286.438,695.625 285.844,695.359 Q285.25,695.078 284.625,695.078 Q283.282,695.078 282.594,696.156 Q281.907,697.219 281.907,699.313 Q281.907,701.406 282.594,702.484 Q283.282,703.547 284.625,703.547 Q285.25,703.547 285.844,703.281 Q286.438,703 287.063,702.422 L287.063,705.141 Z " fill="#FFF"/><text x="304.594" y="704.347" fill="#FFF" font-size="14" textLength="57.183">Favorito</text><line x1="227.58" y1="715.5" x2="406.291" y2="715.5" style="stroke:#E7E7E7;stroke-width:0.5;"/><text x="232.58" y="732.495" fill="#FFF" font-size="14" textLength="64.36">+UUID id</text><text x="232.58" y="748.792" fill="#FFF" font-size="14" textLength="168.711">+DateTime dataCriacao</text><line x1="227.58" y1="756.094" x2="406.291" y2="756.094" style="stroke:#E7E7E7;stroke-width:0.5;"/></g><!--class Seguir--><g class="entity" data-qualified-name="Seguir" id="ent0010" data-source-line="72"><rect x="1096.58" y="667.2" width="180.711" height="113.188" fill="#313139" style="stroke:#E7E7E7;stroke-width:0.5;" rx="2.5" ry="2.5"/><ellipse cx="1160.233" cy="683.2" rx="11" ry="11" fill="#2E5233" style="stroke:#E7E7E7;stroke-width:1;"/><path d="M1163.202,688.841 Q1162.623,689.137 1161.983,689.278 Q1161.342,689.434 1160.639,689.434 Q1158.139,689.434 1156.811,687.794 Q1155.498,686.137 1155.498,683.012 Q1155.498,679.887 1156.811,678.231 Q1158.139,676.575 1160.639,676.575 Q1161.342,676.575 1161.983,676.731 Q1162.639,676.887 1163.202,677.184 L1163.202,679.903 Q1162.577,679.325 1161.983,679.059 Q1161.389,678.778 1160.764,678.778 Q1159.42,678.778 1158.733,679.856 Q1158.045,680.919 1158.045,683.012 Q1158.045,685.106 1158.733,686.184 Q1159.42,687.247 1160.764,687.247 Q1161.389,687.247 1161.983,686.981 Q1162.577,686.7 1163.202,686.122 L1163.202,688.841 Z " fill="#FFF"/><text x="1180.733" y="688.047" fill="#FFF" font-size="14" textLength="44.905">Seguir</text><line x1="1097.58" y1="699.2" x2="1276.291" y2="699.2" style="stroke:#E7E7E7;stroke-width:0.5;"/><text x="1102.58" y="716.195" fill="#FFF" font-size="14" textLength="64.36">+UUID id</text><text x="1102.58" y="732.492" fill="#FFF" font-size="14" textLength="125.364">+UUID seguidorId</text><text x="1102.58" y="748.789" fill="#FFF" font-size="14" textLength="119.608">+UUID seguidoId</text><text x="1102.58" y="765.086" fill="#FFF" font-size="14" textLength="168.711">+DateTime dataCriacao</text><line x1="1097.58" y1="772.387" x2="1276.291" y2="772.387" style="stroke:#E7E7E7;stroke-width:0.5;"/></g><!--class Lista--><g class="entity" data-qualified-name="Lista" id="ent0011" data-source-line="79"><rect x="658.32" y="659.05" width="187.232" height="129.484" fill="#313139" style="stroke:#E7E7E7;stroke-width:0.5;" rx="2.5" ry="2.5"/><ellipse cx="731.16" cy="675.05" rx="11" ry="11" fill="#2E5233" style="stroke:#E7E7E7;stroke-width:1;"/><path d="M734.129,680.691 Q733.551,680.988 732.91,681.128 Q732.27,681.284 731.567,681.284 Q729.067,681.284 727.738,679.644 Q726.426,677.988 726.426,674.863 Q726.426,671.738 727.738,670.081 Q729.067,668.425 731.567,668.425 Q732.27,668.425 732.91,668.581 Q733.567,668.738 734.129,669.034 L734.129,671.753 Q733.504,671.175 732.91,670.909 Q732.317,670.628 731.692,670.628 Q730.348,670.628 729.66,671.706 Q728.973,672.769 728.973,674.863 Q728.973,676.956 729.66,678.034 Q730.348,679.097 731.692,679.097 Q732.317,679.097 732.91,678.831 Q733.504,678.55 734.129,677.972 L734.129,680.691 Z " fill="#FFF"/><text x="751.66" y="679.897" fill="#FFF" font-size="14" textLength="33.052">Lista</text><line x1="659.32" y1="691.05" x2="844.552" y2="691.05" style="stroke:#E7E7E7;stroke-width:0.5;"/><text x="664.32" y="708.045" fill="#FFF" font-size="14" textLength="64.36">+UUID id</text><text x="664.32" y="724.342" fill="#FFF" font-size="14" textLength="94.158">+String titulo</text><text x="664.32" y="740.639" fill="#FFF" font-size="14" textLength="124.94">+String descricao</text><text x="664.32" y="756.936" fill="#FFF" font-size="14" textLength="175.232">+Visibilidade visibilidade</text><text x="664.32" y="773.233" fill="#FFF" font-size="14" textLength="168.711">+DateTime dataCriacao</text><line x1="659.32" y1="780.534" x2="844.552" y2="780.534" style="stroke:#E7E7E7;stroke-width:0.5;"/></g><!--class ItemLista--><g class="entity" data-qualified-name="ItemLista" id="ent0012" data-source-line="87"><rect x="200.93" y="865.54" width="132.019" height="80.594" fill="#313139" style="stroke:#E7E7E7;stroke-width:0.5;" rx="2.5" ry="2.5"/><ellipse cx="231.724" cy="881.54" rx="11" ry="11" fill="#2E5233" style="stroke:#E7E7E7;stroke-width:1;"/><path d="M234.693,887.181 Q234.115,887.478 233.474,887.618 Q232.833,887.774 232.13,887.774 Q229.63,887.774 228.302,886.134 Q226.99,884.478 226.99,881.353 Q226.99,878.228 228.302,876.571 Q229.63,874.915 232.13,874.915 Q232.833,874.915 233.474,875.071 Q234.13,875.228 234.693,875.524 L234.693,878.243 Q234.068,877.665 233.474,877.399 Q232.88,877.118 232.255,877.118 Q230.911,877.118 230.224,878.196 Q229.536,879.259 229.536,881.353 Q229.536,883.446 230.224,884.524 Q230.911,885.587 232.255,885.587 Q232.88,885.587 233.474,885.321 Q234.068,885.04 234.693,884.462 L234.693,887.181 Z " fill="#FFF"/><text x="249.234" y="886.387" fill="#FFF" font-size="14" textLength="64.921">ItemLista</text><line x1="201.93" y1="897.54" x2="331.949" y2="897.54" style="stroke:#E7E7E7;stroke-width:0.5;"/><text x="206.93" y="914.535" fill="#FFF" font-size="14" textLength="64.36">+UUID id</text><text x="206.93" y="930.832" fill="#FFF" font-size="14" textLength="120.019">+Integer posicao</text><line x1="201.93" y1="938.134" x2="331.949" y2="938.134" style="stroke:#E7E7E7;stroke-width:0.5;"/></g><!--class Tag--><g class="entity" data-qualified-name="Tag" id="ent0013" data-source-line="92"><rect x="9.11" y="460.72" width="109.651" height="80.594" fill="#313139" style="stroke:#E7E7E7;stroke-width:0.5;" rx="2.5" ry="2.5"/><ellipse cx="47.345" cy="476.72" rx="11" ry="11" fill="#2E5233" style="stroke:#E7E7E7;stroke-width:1;"/><path d="M50.314,482.361 Q49.736,482.657 49.095,482.798 Q48.455,482.954 47.751,482.954 Q45.251,482.954 43.923,481.314 Q42.611,479.657 42.611,476.532 Q42.611,473.407 43.923,471.751 Q45.251,470.095 47.751,470.095 Q48.455,470.095 49.095,470.251 Q49.751,470.407 50.314,470.704 L50.314,473.423 Q49.689,472.845 49.095,472.579 Q48.501,472.298 47.876,472.298 Q46.533,472.298 45.845,473.376 Q45.158,474.439 45.158,476.532 Q45.158,478.626 45.845,479.704 Q46.533,480.767 47.876,480.767 Q48.501,480.767 49.095,480.501 Q49.689,480.22 50.314,479.642 L50.314,482.361 Z " fill="#FFF"/><text x="66.509" y="481.567" fill="#FFF" font-size="14" textLength="26.018">Tag</text><line x1="10.11" y1="492.72" x2="117.761" y2="492.72" style="stroke:#E7E7E7;stroke-width:0.5;"/><text x="15.11" y="509.715" fill="#FFF" font-size="14" textLength="64.36">+UUID id</text><text x="15.11" y="526.012" fill="#FFF" font-size="14" textLength="97.651">+String nome</text><line x1="10.11" y1="533.314" x2="117.761" y2="533.314" style="stroke:#E7E7E7;stroke-width:0.5;"/></g><!--class PratoTag--><g class="entity" data-qualified-name="PratoTag" id="ent0014" data-source-line="97"><rect x="7" y="683.5" width="113.876" height="80.594" fill="#313139" style="stroke:#E7E7E7;stroke-width:0.5;" rx="2.5" ry="2.5"/><ellipse cx="30.562" cy="699.5" rx="11" ry="11" fill="#2E5233" style="stroke:#E7E7E7;stroke-width:1;"/><path d="M33.531,705.141 Q32.952,705.438 32.312,705.578 Q31.671,705.734 30.968,705.734 Q28.468,705.734 27.14,704.094 Q25.827,702.438 25.827,699.313 Q25.827,696.188 27.14,694.531 Q28.468,692.875 30.968,692.875 Q31.671,692.875 32.312,693.031 Q32.968,693.188 33.531,693.484 L33.531,696.203 Q32.906,695.625 32.312,695.359 Q31.718,695.078 31.093,695.078 Q29.749,695.078 29.062,696.156 Q28.374,697.219 28.374,699.313 Q28.374,701.406 29.062,702.484 Q29.749,703.547 31.093,703.547 Q31.718,703.547 32.312,703.281 Q32.906,703 33.531,702.422 L33.531,705.141 Z " fill="#FFF"/><text x="46.465" y="704.347" fill="#FFF" font-size="14" textLength="62.85">PratoTag</text><line x1="8" y1="715.5" x2="119.876" y2="715.5" style="stroke:#E7E7E7;stroke-width:0.5;"/><text x="13" y="732.495" fill="#FFF" font-size="14" textLength="101.876">+UUID pratoId</text><text x="13" y="748.792" fill="#FFF" font-size="14" textLength="87.555">+UUID tagId</text><line x1="8" y1="756.094" x2="119.876" y2="756.094" style="stroke:#E7E7E7;stroke-width:0.5;"/></g><!--class Conquista--><g class="entity" data-qualified-name="Conquista" id="ent0015" data-source-line="102"><rect x="1469.47" y="444.42" width="136.94" height="113.188" fill="#313139" style="stroke:#E7E7E7;stroke-width:0.5;" rx="2.5" ry="2.5"/><ellipse cx="1500.092" cy="460.42" rx="11" ry="11" fill="#2E5233" style="stroke:#E7E7E7;stroke-width:1;"/><path d="M1503.06,466.061 Q1502.482,466.358 1501.842,466.498 Q1501.201,466.654 1500.498,466.654 Q1497.998,466.654 1496.67,465.014 Q1495.357,463.358 1495.357,460.233 Q1495.357,457.108 1496.67,455.451 Q1497.998,453.795 1500.498,453.795 Q1501.201,453.795 1501.842,453.951 Q1502.498,454.108 1503.06,454.404 L1503.06,457.123 Q1502.435,456.545 1501.842,456.279 Q1501.248,455.998 1500.623,455.998 Q1499.279,455.998 1498.592,457.076 Q1497.904,458.139 1497.904,460.233 Q1497.904,462.326 1498.592,463.404 Q1499.279,464.467 1500.623,464.467 Q1501.248,464.467 1501.842,464.201 Q1502.435,463.92 1503.06,463.342 L1503.06,466.061 Z " fill="#FFF"/><text x="1517.563" y="465.267" fill="#FFF" font-size="14" textLength="70.226">Conquista</text><line x1="1470.47" y1="476.42" x2="1605.41" y2="476.42" style="stroke:#E7E7E7;stroke-width:0.5;"/><text x="1475.47" y="493.415" fill="#FFF" font-size="14" textLength="64.36">+UUID id</text><text x="1475.47" y="509.712" fill="#FFF" font-size="14" textLength="94.158">+String titulo</text><text x="1475.47" y="526.009" fill="#FFF" font-size="14" textLength="124.94">+String descricao</text><text x="1475.47" y="542.306" fill="#FFF" font-size="14" textLength="95.601">+String icone</text><line x1="1470.47" y1="549.608" x2="1605.41" y2="549.608" style="stroke:#E7E7E7;stroke-width:0.5;"/></g><!--class UsuarioConquista--><g class="entity" data-qualified-name="UsuarioConquista" id="ent0016" data-source-line="109"><rect x="1440.14" y="691.65" width="195.593" height="64.297" fill="#313139" style="stroke:#E7E7E7;stroke-width:0.5;" rx="2.5" ry="2.5"/><ellipse cx="1473.213" cy="707.65" rx="11" ry="11" fill="#2E5233" style="stroke:#E7E7E7;stroke-width:1;"/><path d="M1476.182,713.291 Q1475.604,713.588 1474.963,713.728 Q1474.323,713.884 1473.62,713.884 Q1471.12,713.884 1469.792,712.244 Q1468.479,710.588 1468.479,707.463 Q1468.479,704.338 1469.792,702.681 Q1471.12,701.025 1473.62,701.025 Q1474.323,701.025 1474.963,701.181 Q1475.62,701.338 1476.182,701.634 L1476.182,704.353 Q1475.557,703.775 1474.963,703.509 Q1474.37,703.228 1473.745,703.228 Q1472.401,703.228 1471.713,704.306 Q1471.026,705.369 1471.026,707.463 Q1471.026,709.556 1471.713,710.634 Q1472.401,711.697 1473.745,711.697 Q1474.37,711.697 1474.963,711.431 Q1475.557,711.15 1476.182,710.572 L1476.182,713.291 Z " fill="#FFF"/><text x="1491.23" y="712.497" fill="#FFF" font-size="14" textLength="123.43">UsuarioConquista</text><line x1="1441.14" y1="723.65" x2="1634.733" y2="723.65" style="stroke:#E7E7E7;stroke-width:0.5;"/><text x="1446.14" y="740.645" fill="#FFF" font-size="14" textLength="183.593">+DateTime dataObtencao</text><line x1="1441.14" y1="747.947" x2="1634.733" y2="747.947" style="stroke:#E7E7E7;stroke-width:0.5;"/></g><!--class Notificacao--><g class="entity" data-qualified-name="Notificacao" id="ent0017" data-source-line="113"><rect x="880.58" y="667.2" width="180.711" height="113.188" fill="#313139" style="stroke:#E7E7E7;stroke-width:0.5;" rx="2.5" ry="2.5"/><ellipse cx="927.509" cy="683.2" rx="11" ry="11" fill="#2E5233" style="stroke:#E7E7E7;stroke-width:1;"/><path d="M930.477,688.841 Q929.899,689.137 929.259,689.278 Q928.618,689.434 927.915,689.434 Q925.415,689.434 924.087,687.794 Q922.774,686.137 922.774,683.012 Q922.774,679.887 924.087,678.231 Q925.415,676.575 927.915,676.575 Q928.618,676.575 929.259,676.731 Q929.915,676.887 930.477,677.184 L930.477,679.903 Q929.852,679.325 929.259,679.059 Q928.665,678.778 928.04,678.778 Q926.696,678.778 926.009,679.856 Q925.321,680.919 925.321,683.012 Q925.321,685.106 926.009,686.184 Q926.696,687.247 928.04,687.247 Q928.665,687.247 929.259,686.981 Q929.852,686.7 930.477,686.122 L930.477,688.841 Z " fill="#FFF"/><text x="948.009" y="688.047" fill="#FFF" font-size="14" textLength="78.354">Notificacao</text><line x1="881.58" y1="699.2" x2="1060.291" y2="699.2" style="stroke:#E7E7E7;stroke-width:0.5;"/><text x="886.58" y="716.195" fill="#FFF" font-size="14" textLength="64.36">+UUID id</text><text x="886.58" y="732.492" fill="#FFF" font-size="14" textLength="84.793">+String tipo</text><text x="886.58" y="748.789" fill="#FFF" font-size="14" textLength="98.116">+Boolean lida</text><text x="886.58" y="765.086" fill="#FFF" font-size="14" textLength="168.711">+DateTime dataCriacao</text><line x1="881.58" y1="772.387" x2="1060.291" y2="772.387" style="stroke:#E7E7E7;stroke-width:0.5;"/></g><!--link Usuario to Avaliacao--><g class="link" data-entity-1="ent0002" data-entity-2="ent0006" id="lnk18" data-source-line="124" data-link-type="association"><path d="M917.09,537.08 C841.91,567.01 732.91,612.48 640.94,659.05 C635.21,661.95 629.36,665.03 623.51,668.21" style="stroke:#E7E7E7;stroke-width:1;" fill="none" id="Usuario-Avaliacao" codeLine="124"/><polygon points="730.375,622.656,739.832,621.65,737.435,616.283,730.375,622.656" fill="#FFF" style="stroke:#FFF;stroke-width:1;stroke-linejoin:miter;stroke-miterlimit:10;"/><text x="743.94" y="625.117" fill="#FFF" font-size="13" textLength="43.323">realiza</text><text x="901.247" y="536.518" fill="#FFF" font-size="13">1</text><text x="627.406" y="658.014" fill="#FFF" font-size="13" textLength="23.036">0..*</text></g><!--link Prato to Avaliacao--><g class="link" data-entity-1="ent0005" data-entity-2="ent0006" id="lnk19" data-source-line="125" data-link-type="association"><path d="M345.65,566.17 C380.52,595.32 421.66,629.73 456.49,658.86" style="stroke:#E7E7E7;stroke-width:1;" fill="none" id="Prato-Avaliacao" codeLine="125"/><polygon points="425.776,623.824,420.722,615.767,416.952,620.276,425.776,623.824" fill="#FFF" style="stroke:#FFF;stroke-width:1;stroke-linejoin:miter;stroke-miterlimit:10;"/><text x="430.94" y="625.117" fill="#FFF" font-size="13" textLength="44.738">recebe</text><text x="345.162" y="585.737" fill="#FFF" font-size="13">1</text><text x="423.873" y="648.012" fill="#FFF" font-size="13" textLength="23.036">0..*</text></g><!--link Restaurante to Prato--><g class="link" data-entity-1="ent0003" data-entity-2="ent0005" id="lnk20" data-source-line="127" data-link-type="association"><path d="M268.94,343.32 C268.94,373.91 268.94,407.58 268.94,435.84" style="stroke:#E7E7E7;stroke-width:1;" fill="none" id="Restaurante-Prato" codeLine="127"/><polygon points="273.94,386.536,276.879,377.491,271.001,377.491,273.94,386.536" fill="#FFF" style="stroke:#FFF;stroke-width:1;stroke-linejoin:miter;stroke-miterlimit:10;"/><text x="282.94" y="386.037" fill="#FFF" font-size="13" textLength="41.603">possui</text><text x="260.632" y="363.124" fill="#FFF" font-size="13">1</text><text x="244.756" y="425.419" fill="#FFF" font-size="13" textLength="23.036">0..*</text></g><!--link Categoria to Restaurante--><g class="link" data-entity-1="ent0004" data-entity-2="ent0003" id="lnk21" data-source-line="128" data-link-type="association"><path d="M268.94,87.73 C268.94,109.55 268.94,137.6 268.94,164.36" style="stroke:#E7E7E7;stroke-width:1;" fill="none" id="Categoria-Restaurante" codeLine="128"/><polygon points="273.94,131.166,276.879,122.121,271.001,122.121,273.94,131.166" fill="#FFF" style="stroke:#FFF;stroke-width:1;stroke-linejoin:miter;stroke-miterlimit:10;"/><text x="282.94" y="130.667" fill="#FFF" font-size="13" textLength="59.186">classifica</text><text x="260.301" y="107.747" fill="#FFF" font-size="13">1</text><text x="244.989" y="153.406" fill="#FFF" font-size="13" textLength="23.036">0..*</text></g><!--link Avaliacao to FotoAvaliacao--><g class="link" data-entity-1="ent0006" data-entity-2="ent0007" id="lnk22" data-source-line="130" data-link-type="association"><path d="M532.94,789.03 C532.94,814.48 532.94,842.93 532.94,865.26" style="stroke:#E7E7E7;stroke-width:1;" fill="none" id="Avaliacao-FotoAvaliacao" codeLine="130"/><polygon points="537.94,832.106,540.879,823.061,535.001,823.061,537.94,832.106" fill="#FFF" style="stroke:#FFF;stroke-width:1;stroke-linejoin:miter;stroke-miterlimit:10;"/><text x="546.94" y="831.607" fill="#FFF" font-size="13" textLength="41.603">possui</text><text x="524.542" y="808.605" fill="#FFF" font-size="13">1</text><text x="508.038" y="854.375" fill="#FFF" font-size="13" textLength="23.036">0..*</text></g><!--link Avaliacao to CurtidaAvaliacao--><g class="link" data-entity-1="ent0006" data-entity-2="ent0008" id="lnk23" data-source-line="131" data-link-type="association"><path d="M623.73,780.5 C629.48,783.36 635.24,786.07 640.94,788.54 C742.67,832.6 866.03,865.73 948.19,885.14" style="stroke:#E7E7E7;stroke-width:1;" fill="none" id="Avaliacao-CurtidaAvaliacao" codeLine="131"/><polygon points="768.699,828.641,760.992,823.068,759.188,828.662,768.699,828.641" fill="#FFF" style="stroke:#FFF;stroke-width:1;stroke-linejoin:miter;stroke-miterlimit:10;"/><text x="772.94" y="831.607" fill="#FFF" font-size="13" textLength="44.738">recebe</text><text x="631.295" y="781.493" fill="#FFF" font-size="13">1</text><text x="917.683" y="880.141" fill="#FFF" font-size="13" textLength="23.036">0..*</text></g><!--link Usuario to CurtidaAvaliacao--><g class="link" data-entity-1="ent0002" data-entity-2="ent0008" id="lnk24" data-source-line="132" data-link-type="association"><path d="M1098.64,524.79 C1165.85,546.95 1252.8,587.96 1294.94,659.05 C1324.28,708.56 1326.1,740.15 1294.94,788.54 C1258.66,844.86 1187.7,874.22 1129.67,889.34" style="stroke:#E7E7E7;stroke-width:1;" fill="none" id="Usuario-CurtidaAvaliacao" codeLine="132"/><polygon points="1322.364,728.838,1324.525,719.577,1318.669,720.075,1322.364,728.838" fill="#FFF" style="stroke:#FFF;stroke-width:1;stroke-linejoin:miter;stroke-miterlimit:10;"/><text x="1330.94" y="728.357" fill="#FFF" font-size="13" textLength="43.323">realiza</text><text x="1106.198" y="523.16" fill="#FFF" font-size="13">1</text><text x="1137.179" y="884.65" fill="#FFF" font-size="13" textLength="23.036">0..*</text></g><!--link Usuario to Favorito--><g class="link" data-entity-1="ent0002" data-entity-2="ent0009" id="lnk25" data-source-line="134" data-link-type="association"><path d="M917.3,518.51 C800.47,541.54 592.46,588.59 424.94,659.05 C409.08,665.72 392.73,674.34 377.69,683.08" style="stroke:#E7E7E7;stroke-width:1;" fill="none" id="Usuario-Favorito" codeLine="134"/><text x="901.179" y="516.442" fill="#FFF" font-size="13">1</text><text x="362.543" y="672.473" fill="#FFF" font-size="13" textLength="23.036">0..*</text></g><!--link Prato to Favorito--><g class="link" data-entity-1="ent0005" data-entity-2="ent0009" id="lnk26" data-source-line="135" data-link-type="association"><path d="M282.89,566.17 C291.11,603.98 301.25,650.63 308.32,683.14" style="stroke:#E7E7E7;stroke-width:1;" fill="none" id="Prato-Favorito" codeLine="135"/><text x="275.93" y="585.737" fill="#FFF" font-size="13">1</text><text x="282.117" y="672.542" fill="#FFF" font-size="13" textLength="23.036">0..*</text></g><!--link Usuario to Lista--><g class="link" data-entity-1="ent0002" data-entity-2="ent0011" id="lnk27" data-source-line="137" data-link-type="association"><path d="M917.32,580.16 C887.55,605.84 854.82,634.07 826.38,658.59" style="stroke:#E7E7E7;stroke-width:1;" fill="none" id="Usuario-Lista" codeLine="137"/><text x="901.201" y="583.39" fill="#FFF" font-size="13">1</text><text x="809.873" y="648.166" fill="#FFF" font-size="13" textLength="23.036">0..*</text></g><!--link Lista to ItemLista--><g class="link" data-entity-1="ent0011" data-entity-2="ent0012" id="lnk28" data-source-line="138" data-link-type="association"><path d="M738.81,788.99 C732.13,806.64 722.07,824.06 706.94,835.54 C659.9,871.22 501.17,855.76 442.94,865.54 C406.35,871.68 365.92,880.56 333.05,888.32" style="stroke:#E7E7E7;stroke-width:1;" fill="none" id="Lista-ItemLista" codeLine="138"/><text x="729.058" y="808.561" fill="#FFF" font-size="13">1</text><text x="341.055" y="882.814" fill="#FFF" font-size="13" textLength="23.036">0..*</text></g><!--link Prato to ItemLista--><g class="link" data-entity-1="ent0005" data-entity-2="ent0012" id="lnk29" data-source-line="139" data-link-type="association"><path d="M238.34,566.18 C226.66,594.05 214.76,627.48 208.94,659.05 C198.49,715.64 195.74,732.52 208.94,788.54 C215.3,815.55 228.94,843.45 241.39,865.15" style="stroke:#E7E7E7;stroke-width:1;" fill="none" id="Prato-ItemLista" codeLine="139"/><text x="226.786" y="585.748" fill="#FFF" font-size="13">1</text><text x="212.488" y="854.548" fill="#FFF" font-size="13" textLength="23.036">0..*</text></g><!--link Usuario to Notificacao--><g class="link" data-entity-1="ent0002" data-entity-2="ent0017" id="lnk30" data-source-line="141" data-link-type="association"><path d="M994.48,582.34 C989.79,610.33 984.63,641.11 980.34,666.7" style="stroke:#E7E7E7;stroke-width:1;" fill="none" id="Usuario-Notificacao" codeLine="141"/><text x="984.992" y="602.047" fill="#FFF" font-size="13">1</text><text x="957.1" y="656.306" fill="#FFF" font-size="13" textLength="23.036">0..*</text></g><!--link Prato to PratoTag--><g class="link" data-entity-1="ent0005" data-entity-2="ent0014" id="lnk31" data-source-line="143" data-link-type="association"><path d="M194.25,565.98 C178.43,580.6 162.22,596.44 147.94,612.05 C127.5,634.4 106.91,661.45 91.23,683.22" style="stroke:#E7E7E7;stroke-width:1;" fill="none" id="Prato-PratoTag" codeLine="143"/><text x="177.658" y="585.98" fill="#FFF" font-size="13">1</text><text x="70.849" y="672.335" fill="#FFF" font-size="13" textLength="23.036">0..*</text></g><!--link Tag to PratoTag--><g class="link" data-entity-1="ent0013" data-entity-2="ent0014" id="lnk32" data-source-line="144" data-link-type="association"><path d="M63.94,541.74 C63.94,581.72 63.94,643.02 63.94,683.01" style="stroke:#E7E7E7;stroke-width:1;" fill="none" id="Tag-PratoTag" codeLine="144"/><text x="55.325" y="561.503" fill="#FFF" font-size="13">1</text><text x="39.11" y="672.392" fill="#FFF" font-size="13" textLength="23.036">0..*</text></g><!--link Usuario to UsuarioConquista--><g class="link" data-entity-1="ent0002" data-entity-2="ent0016" id="lnk33" data-source-line="146" data-link-type="association"><path d="M1098.45,521.33 C1174.04,539.31 1283.5,569.73 1372.94,612.05 C1418.62,633.67 1466.06,666.81 1498.27,691.21" style="stroke:#E7E7E7;stroke-width:1;" fill="none" id="Usuario-UsuarioConquista" codeLine="146"/><text x="1106.288" y="535.706" fill="#FFF" font-size="13">1</text><text x="1465.52" y="680.648" fill="#FFF" font-size="13" textLength="23.036">0..*</text></g><!--link Conquista to UsuarioConquista--><g class="link" data-entity-1="ent0015" data-entity-2="ent0016" id="lnk34" data-source-line="147" data-link-type="association"><path d="M1537.94,558.01 C1537.94,600.3 1537.94,656.78 1537.94,691.43" style="stroke:#E7E7E7;stroke-width:1;" fill="none" id="Conquista-UsuarioConquista" codeLine="147"/><text x="1529.493" y="577.542" fill="#FFF" font-size="13">1</text><text x="1512.68" y="680.661" fill="#FFF" font-size="13" textLength="23.036">0..*</text></g><!--reverse link Usuario to Seguir--><g class="link" data-entity-1="ent0002" data-entity-2="ent0010" id="lnk35" data-source-line="149" data-link-type="dependency"><path d="M1085.207,586.057 C1093.797,595.957 1099.03,602.25 1106.94,612.05 C1120.94,629.4 1135.45,648.94 1148.2,666.72" style="stroke:#E7E7E7;stroke-width:1;" fill="none" id="Usuario-backto-Seguir" codeLine="149"/><polygon points="1081.93,582.28,1084.807,591.699,1085.207,586.057,1090.85,586.456,1081.93,582.28" fill="#E7E7E7" style="stroke:#E7E7E7;stroke-width:1;stroke-linejoin:miter;stroke-miterlimit:10;"/><text x="1119.94" y="625.117" fill="#FFF" font-size="13" textLength="56.424">seguidor</text><text x="1079.957" y="601.981" fill="#FFF" font-size="13">1</text><text x="1119.394" y="656.328" fill="#FFF" font-size="13" textLength="23.036">0..*</text></g><!--reverse link Usuario to Seguir--><g class="link" data-entity-1="ent0002" data-entity-2="ent0010" id="lnk36" data-source-line="150" data-link-type="dependency"><path d="M1024.346,586.995 C1029.826,603.495 1035.73,615.27 1045.94,629.05 C1053.85,639.74 1073.79,654.59 1096.27,669.32" style="stroke:#E7E7E7;stroke-width:1;" fill="none" id="Usuario-backto-Seguir-1" codeLine="150"/><polygon points="1022.77,582.25,1021.811,592.052,1024.346,586.995,1029.403,589.53,1022.77,582.25" fill="#E7E7E7" style="stroke:#E7E7E7;stroke-width:1;stroke-linejoin:miter;stroke-miterlimit:10;"/><text x="1046.94" y="625.117" fill="#FFF" font-size="13" textLength="51.08">seguido</text><text x="1015.747" y="602.226" fill="#FFF" font-size="13">1</text><text x="1069.26" y="659.252" fill="#FFF" font-size="13" textLength="23.036">0..*</text></g><?plantuml-src hLN1Rjim3BthAuHS2cneqLs3RO2RP9Y1D2dYf7VQPbrYjfH9SWuTzk-JOpksMbj9j-LaKOzy94M-w1yazg2Wu4aEMWV6A8fBWs4YHKGlo6yPk_eoycDNVB7QtKSU18gou8-aAQQSKaYH_sBS_XvsTyjmjgw_D-5ZC5-pttwgsJA8eeMFZ1rhu3jTWYBPC7tSxS8vfxG-HBO-aN4X2snWZXqBeDonQ1JFy1tqisEDIMOAdWWSAnp0WAfDSp2ufG9vQcqpHP20h2giKzoWDb0g40RFfUaOKjI9eYgKaxL8KM7Y6fDZkrsS9KqRr5oMSOuy1qEcR76jKOgijfuIdjboCcdBE9lkoUL1WP7_eJeg8CF2IR30b20uG6xRAb5td8qDXdaRRo6D-sw9JKIORXYSjwk6jyNx7_MRDDAVGCDNgZoiY-hwMofZ7-nC_dvwEDW7Cd_Z6c5MaXfqF1vqTPzA5GuOmuiObcHdpzUJQWnpwHi7HqKElSCb_A71OZo7qEvXXehlfIR7RGlPEmV-jSU-CZfzCv3PS_VoKlmi_xqxxR9OtUwbr6ZS6mwdMUlOe73ANab3JpRscJasj6_OxwJC4GIl7iJ_73w5tooMmInShuBxnMgxzYfzg_6JJnD-VSqdjpSt7oQzzPzoXVRx1VXNLWkH3vbWZ1R8-hBiukiOqsf2T4aMsmcY2-o7cDP_giTMLk4xKjV75OuUoPZ36xNe5J7ScK6Fja4ZFgsW33RmT3dYV5msLg-SUtDQnS6utUr8uDviii48xHgoQXL7haPYlruNrYtE6Q0Jy7C7R9HrUfBGIu5_0000?></g></svg>